<?xml version="1.0" encoding="UTF-8" standalone="no"?>
<!DOCTYPE svg PUBLIC "-//W3C//DTD SVG 1.1//EN" "http://www.w3.org/Graphics/SVG/1.1/DTD/svg11.dtd">
<svg xmlns="http://www.w3.org/2000/svg" version="1.1" viewBox="0.00 0.00 250.00 250.00">
<path fill="#000000" d="
  M 194.83 155.30
  C 176.63 196.49 126.47 212.53 87.29 190.39
  C 57.78 173.71 42.77 138.58 51.66 105.73
  C 58.76 79.48 79.10 59.31 105.32 52.19
  C 166.30 35.64 220.54 97.12 194.83 155.30
  Z
  M 65.82 144.84
  A 0.33 0.33 0.0 0 0 66.12 145.31
  L 104.92 145.32
  A 0.33 0.33 0.0 0 0 105.22 144.86
  L 86.62 99.91
  A 0.33 0.33 0.0 0 0 86.02 99.90
  L 65.82 144.84
  Z
  M 120.81 103.02
  Q 128.66 102.85 136.50 103.03
  Q 143.65 103.20 143.95 110.29
  A 0.64 0.63 90.0 0 0 144.56 110.91
  L 144.92 110.93
  A 0.40 0.40 0.0 0 0 145.34 110.52
  L 145.01 100.57
  Q 144.99 100.15 144.57 100.15
  L 108.02 100.14
  A 0.50 0.50 0.0 0 0 107.53 100.53
  L 107.44 100.95
  A 0.22 0.22 0.0 0 0 107.65 101.22
  C 110.48 101.31 113.79 101.64 113.79 105.25
  Q 113.81 122.23 113.79 139.21
  C 113.78 143.69 111.63 144.04 107.80 144.33
  Q 107.63 144.35 107.58 144.50
  L 107.47 144.83
  Q 107.31 145.32 107.83 145.32
  L 127.06 145.33
  A 0.31 0.31 0.0 0 0 127.37 145.00
  L 127.36 144.64
  A 0.43 0.43 0.0 0 0 126.90 144.24
  C 123.07 144.54 120.30 143.69 120.27 139.35
  Q 120.17 121.46 120.27 103.57
  Q 120.27 103.03 120.81 103.02
  Z
  M 161.87 124.34
  Q 168.45 125.92 173.49 124.70
  C 180.14 123.09 183.69 116.42 182.21 110.00
  C 180.89 104.26 174.89 100.29 169.25 100.22
  Q 159.17 100.10 149.15 100.09
  A 0.64 0.64 0.0 0 0 148.53 100.58
  L 148.44 100.94
  Q 148.38 101.19 148.63 101.21
  C 154.55 101.76 154.79 102.35 154.80 108.24
  Q 154.82 123.87 154.82 139.50
  Q 154.82 144.86 148.94 144.22
  A 0.35 0.35 0.0 0 0 148.55 144.53
  L 148.51 144.80
  Q 148.45 145.33 148.99 145.33
  L 167.38 145.31
  Q 167.86 145.31 167.67 144.87
  L 167.47 144.43
  A 0.30 0.29 -15.9 0 0 167.16 144.26
  C 161.17 145.02 161.36 140.71 161.28 136.50
  Q 161.16 130.65 161.28 124.79
  Q 161.29 124.20 161.87 124.34
  Z"
/>
<path fill="#000000" d="
  M 161.26 104.51
  A 2.03 2.03 0.0 0 1 163.30 102.48
  L 165.99 102.49
  A 9.34 9.04 -89.8 0 1 174.99 111.86
  L 174.99 113.58
  A 9.34 9.04 -89.8 0 1 165.91 122.89
  L 163.22 122.88
  A 2.03 2.03 0.0 0 1 161.20 120.85
  L 161.26 104.51
  Z"
/>
<path fill="#000000" d="
  M 69.84 142.42
  L 83.71 111.15
  A 0.33 0.33 0.0 0 1 84.31 111.16
  L 97.53 142.71
  A 0.33 0.33 0.0 0 1 97.22 143.17
  L 70.13 142.89
  A 0.33 0.33 0.0 0 1 69.84 142.42
  Z"
/>
</svg>
