<?xml version="1.0" encoding="UTF-8" standalone="no"?>
<svg xmlns="http://www.w3.org/2000/svg" version="1.2" baseProfile="tiny" viewBox="0.00 0.00 707.00 353.00" width="707.00" height="353.00">
<g>
<path fill="#000000" d="
  M 538.65 41.93
  C 543.98 34.31 547.64 24.20 549.16 14.75
  C 549.22 14.35 549.45 14.18 549.85 14.23
  C 560.62 15.69 580.78 22.46 578.57 37.08
  C 578.51 37.45 578.30 37.67 577.93 37.74
  C 573.01 38.66 568.52 40.44 564.47 43.07
  C 558.92 46.67 553.18 50.43 547.25 54.35
  C 540.98 58.49 533.56 61.51 526.35 60.53
  C 525.92 60.47 525.79 60.24 525.96 59.84
  C 526.77 57.98 527.38 56.80 527.79 56.29
  C 531.90 51.19 535.52 46.40 538.65 41.93
  Z"
/>
<path fill="#000000" d="
  M 478.63 65.43
  C 478.23 66.51 477.46 67.14 476.32 67.33
  C 471.88 68.05 467.56 66.90 463.85 64.65
  C 455.20 59.42 448.83 52.18 444.74 42.93
  C 444.01 41.28 443.66 39.59 443.69 37.84
  C 443.70 37.45 443.86 37.13 444.17 36.89
  C 465.19 21.09 486.64 43.91 478.63 65.43
  Z"
/>
<path fill="#000000" d="
  M 173.38 124.55
  C 173.25 124.97 173.41 125.19 173.85 125.20
  C 181.09 125.43 188.42 124.38 195.83 122.07
  C 203.89 119.55 212.42 116.84 221.42 113.95
  C 237.84 108.67 254.54 106.31 272.06 108.05
  C 272.44 108.09 272.69 108.47 272.58 108.83
  C 270.28 116.26 264.50 120.50 257.23 122.12
  C 247.43 124.29 237.09 124.20 226.79 124.92
  C 226.38 124.95 226.18 125.17 226.20 125.58
  C 226.49 131.17 226.66 136.55 226.73 141.72
  C 226.94 160.23 223.81 179.89 217.32 200.68
  C 214.61 209.39 211.80 217.54 208.90 225.15
  C 208.79 225.46 208.76 225.78 208.82 226.11
  C 212.98 247.85 235.25 260.55 254.84 268.35
  C 273.60 275.82 292.34 280.43 312.61 285.52
  C 312.93 285.60 313.11 285.94 312.98 286.25
  C 310.08 293.08 302.03 296.67 295.25 298.47
  C 278.45 302.93 259.38 303.01 241.75 302.14
  C 240.44 302.08 239.16 301.94 237.92 301.71
  C 237.59 301.65 237.30 301.50 237.07 301.26
  C 229.69 293.80 224.13 287.57 220.38 282.57
  C 212.17 271.58 204.20 260.69 195.83 250.08
  C 195.60 249.79 195.19 249.70 194.86 249.88
  C 186.59 254.39 178.24 259.20 169.81 264.29
  C 149.40 276.61 127.36 283.70 103.67 285.55
  C 102.27 285.66 102.15 285.32 103.32 284.53
  C 107.82 281.49 112.57 278.76 117.58 276.34
  C 127.79 271.41 137.21 266.46 145.85 261.50
  C 158.50 254.23 170.74 244.67 178.78 232.50
  C 179.01 232.15 179.08 231.78 178.97 231.37
  C 174.88 215.00 159.99 204.09 147.92 193.66
  C 144.32 190.55 138.99 185.15 142.40 180.14
  C 142.59 179.87 142.86 179.67 143.17 179.57
  C 156.41 175.69 165.44 183.55 171.44 194.46
  C 174.17 199.43 176.89 204.18 179.60 208.72
  C 180.75 210.64 182.30 212.14 184.27 213.23
  C 184.60 213.41 184.94 213.42 185.27 213.26
  C 196.36 207.91 199.23 193.88 200.57 182.91
  C 201.08 178.70 201.41 174.62 201.54 170.67
  C 201.89 160.46 202.08 149.75 202.11 138.56
  C 202.11 138.30 201.94 138.07 201.68 137.99
  C 179.39 131.55 160.12 139.37 143.40 153.95
  C 142.93 154.36 142.74 154.25 142.82 153.64
  C 142.96 152.59 143.18 151.54 143.47 150.49
  C 145.06 144.87 147.37 139.04 150.39 133.01
  C 157.03 119.73 163.91 106.42 169.88 92.75
  C 177.03 76.38 181.98 60.14 184.74 44.02
  C 184.81 43.62 185.04 43.44 185.45 43.48
  C 188.71 43.80 191.91 45.30 194.69 47.02
  C 198.76 49.53 203.27 50.38 208.07 49.81
  C 208.54 49.75 208.74 49.96 208.65 50.43
  C 205.13 68.32 199.57 84.64 188.38 98.71
  C 181.99 106.74 176.37 114.81 173.38 124.55
  Z"
/>
<path fill="#000000" d="
  M 556.00 208.55
  C 563.73 210.89 573.31 210.25 581.35 209.05
  C 591.51 207.53 601.17 206.12 610.34 204.81
  C 627.87 202.30 646.47 203.73 661.39 213.54
  C 661.80 213.81 661.76 213.98 661.27 214.03
  C 627.07 217.70 593.23 221.24 559.75 224.65
  C 531.14 227.56 502.56 230.05 474.00 232.12
  C 446.56 234.11 418.37 235.72 390.30 234.94
  C 383.45 234.75 376.45 234.00 369.30 232.70
  C 367.79 232.43 367.75 232.02 369.19 231.48
  C 374.79 229.37 380.63 227.82 386.70 226.81
  C 405.98 223.63 425.03 223.71 444.61 222.09
  C 450.03 221.64 455.13 220.77 459.90 219.48
  C 460.22 219.39 460.40 219.18 460.43 218.85
  C 461.02 212.55 457.74 206.49 454.87 200.86
  C 451.57 194.40 449.54 187.55 448.79 180.30
  C 448.75 179.96 448.54 179.66 448.23 179.52
  C 438.80 175.17 429.03 175.64 418.85 175.43
  C 415.45 175.36 412.14 174.63 408.96 173.46
  C 408.21 173.18 408.13 172.77 408.74 172.24
  C 414.32 167.33 422.02 165.08 429.37 163.79
  C 436.12 162.61 442.72 161.87 449.17 161.57
  C 463.80 160.88 478.99 160.48 494.74 160.36
  C 495.06 160.35 495.34 160.14 495.42 159.83
  C 496.41 156.25 497.07 152.63 496.35 148.91
  C 495.48 144.46 495.16 140.04 495.38 135.63
  C 495.41 135.14 495.21 134.77 494.78 134.52
  C 488.16 130.71 479.83 130.51 472.35 131.01
  C 465.72 131.45 459.05 131.85 452.34 132.20
  C 445.93 132.54 435.74 131.47 437.80 121.93
  C 437.92 121.38 438.37 120.96 438.93 120.88
  C 443.05 120.29 446.99 120.04 450.75 120.15
  C 461.60 120.47 470.68 120.52 478.00 120.31
  C 482.48 120.18 493.44 119.51 495.18 114.54
  C 498.16 106.02 498.38 96.93 487.96 93.65
  C 484.24 92.48 480.68 91.85 477.28 91.75
  C 469.31 91.52 461.40 91.29 453.53 91.04
  C 446.65 90.83 437.04 88.88 437.77 80.02
  C 437.81 79.58 438.05 79.37 438.49 79.39
  C 452.69 80.10 467.10 79.41 481.71 77.32
  C 490.41 76.07 504.53 73.96 524.06 70.97
  C 542.09 68.21 560.10 67.18 578.09 67.89
  C 578.44 67.90 578.65 68.28 578.48 68.58
  C 567.00 88.77 539.94 85.26 520.68 85.27
  C 520.29 85.27 519.96 85.57 519.92 85.96
  C 519.73 87.82 519.42 89.79 518.98 91.88
  C 517.64 98.23 518.56 104.29 521.74 110.08
  C 521.92 110.40 522.18 110.61 522.53 110.71
  C 526.67 111.90 531.15 112.06 535.98 111.20
  C 541.16 110.29 546.28 109.24 551.34 108.07
  C 558.37 106.44 566.15 105.74 572.83 108.96
  C 573.11 109.10 573.23 109.44 573.10 109.72
  C 568.10 120.21 555.17 123.33 544.01 124.41
  C 536.08 125.18 528.44 125.69 521.11 125.93
  C 520.34 125.96 519.99 126.35 520.04 127.12
  C 520.31 131.18 519.89 135.03 517.97 138.68
  C 516.15 142.13 514.76 145.78 513.80 149.61
  C 513.70 149.99 513.85 150.39 514.17 150.62
  C 524.44 157.93 536.97 156.56 548.70 153.86
  C 568.71 149.25 589.06 143.59 607.84 154.42
  C 608.10 154.57 608.19 154.89 608.06 155.15
  C 605.58 159.91 600.56 161.91 595.39 162.39
  C 590.11 162.88 584.60 163.33 578.87 163.74
  C 574.46 164.06 570.56 165.04 567.17 166.69
  C 566.30 167.12 565.97 167.80 566.18 168.75
  C 567.80 176.09 568.25 182.76 565.62 189.96
  C 563.32 196.27 560.05 202.28 555.81 207.97
  C 555.65 208.17 555.75 208.47 556.00 208.55
  Z
  M 462.94 179.30
  C 471.55 184.36 476.31 191.74 477.21 201.44
  C 477.75 207.23 478.20 212.96 478.56 218.62
  C 478.59 219.11 478.83 219.27 479.29 219.10
  C 497.62 212.45 517.09 213.21 536.73 213.93
  C 537.23 213.95 537.50 213.71 537.53 213.21
  C 538.07 205.37 539.96 198.17 542.26 190.68
  C 544.55 183.19 544.53 175.65 542.96 167.93
  C 542.89 167.57 542.67 167.40 542.30 167.41
  C 524.37 167.97 506.42 169.42 488.46 171.76
  C 479.97 172.87 470.55 174.26 462.84 177.86
  C 462.46 178.04 462.31 178.51 462.52 178.88
  C 462.61 179.05 462.75 179.19 462.94 179.30
  Z"
/>
<path fill="#000000" d="
  M 54.64 253.00
  C 54.87 254.41 55.64 254.84 56.95 254.29
  C 62.23 252.11 67.29 249.64 72.12 246.88
  C 81.31 241.63 90.42 236.57 99.47 231.70
  C 106.72 227.79 113.67 224.61 120.31 222.16
  C 123.40 221.02 126.59 220.31 129.86 220.04
  C 130.89 219.95 131.06 220.30 130.38 221.07
  C 126.74 225.20 122.82 229.22 118.63 233.13
  C 105.84 245.09 91.90 256.61 76.82 267.68
  C 68.93 273.47 60.89 278.79 52.72 283.62
  C 48.30 286.23 43.44 288.44 38.15 290.25
  C 37.38 290.52 36.87 290.26 36.63 289.47
  C 33.17 278.27 33.17 264.74 33.91 253.58
  C 35.38 231.53 37.49 208.91 36.93 186.50
  C 36.62 174.15 34.82 161.91 31.54 149.76
  C 31.47 149.49 31.75 149.26 32.00 149.38
  C 50.37 158.25 71.69 158.98 87.35 145.02
  C 102.33 131.66 105.57 110.10 101.35 90.66
  C 101.26 90.25 101.01 90.02 100.59 89.97
  C 95.89 89.41 89.86 91.17 85.32 92.68
  C 72.17 97.07 58.53 102.46 45.05 104.47
  C 38.66 105.42 32.72 104.95 27.25 103.06
  C 26.22 102.71 26.24 102.41 27.30 102.18
  C 32.28 101.08 37.22 99.48 42.13 97.38
  C 53.04 92.73 64.46 88.18 76.39 83.74
  C 94.80 76.88 117.56 71.49 136.20 78.50
  C 136.61 78.65 136.79 78.95 136.75 79.38
  C 136.06 86.89 133.66 94.41 129.55 101.95
  C 126.91 106.80 124.28 111.75 121.67 116.80
  C 114.50 130.69 113.47 144.99 118.59 159.69
  C 118.67 159.92 118.48 160.15 118.24 160.12
  C 105.34 158.28 91.02 158.84 79.26 164.49
  C 47.82 179.59 50.04 224.79 54.64 253.00
  Z"
/>
<path fill="#000000" d="
  M 432.94 255.55
  C 474.11 249.78 516.29 240.38 558.45 245.62
  C 570.30 247.09 580.89 250.29 590.21 255.21
  C 590.71 255.47 590.95 255.88 590.93 256.44
  C 590.60 268.82 582.01 273.91 574.05 281.48
  C 567.81 287.41 565.39 294.83 566.79 303.73
  C 566.95 304.73 567.09 305.73 567.22 306.73
  C 567.26 307.08 567.12 307.35 566.81 307.53
  C 552.09 315.71 535.58 319.57 518.85 320.03
  C 508.19 320.33 497.67 320.63 487.29 320.92
  C 476.97 321.22 466.40 322.68 455.59 325.31
  C 455.29 325.39 454.98 325.20 454.90 324.90
  C 450.97 309.02 448.18 293.04 446.54 276.95
  C 445.61 267.80 439.38 261.65 432.78 256.10
  C 432.57 255.93 432.67 255.59 432.94 255.55
  Z
  M 543.58 302.17
  C 543.86 302.19 544.12 302.03 544.23 301.77
  C 548.20 292.38 550.44 282.92 552.20 272.57
  C 552.83 268.86 553.87 264.93 555.20 261.46
  C 555.36 261.05 555.23 260.78 554.81 260.65
  C 541.27 256.43 527.35 254.13 514.19 256.78
  C 508.43 257.93 502.47 259.26 496.30 260.76
  C 486.69 263.09 477.19 263.17 467.79 261.00
  C 467.00 260.82 466.40 261.08 465.99 261.78
  C 463.90 265.42 463.21 269.26 463.93 273.31
  C 465.07 279.68 467.26 285.79 467.79 292.33
  C 468.20 297.34 467.84 302.19 466.73 306.87
  C 466.69 307.06 466.80 307.24 466.99 307.28
  C 476.62 309.25 486.05 309.25 495.30 307.28
  C 500.77 306.12 506.33 305.00 511.98 303.91
  C 522.20 301.96 532.73 301.38 543.58 302.17
  Z"
/>
</g>
</svg>
