<?xml version="1.0" encoding="UTF-8" standalone="no"?>
<svg xmlns="http://www.w3.org/2000/svg" version="1.2" baseProfile="tiny" viewBox="0.00 0.00 738.00 338.00" width="738.00" height="338.00">
<g>
<path fill="#fefefe" d="
  M 303.34 12.36
  C 295.31 19.27 294.90 31.28 303.26 38.39
  C 303.44 38.54 303.45 38.82 303.27 38.98
  L 301.39 40.70
  C 301.26 40.82 301.07 40.82 300.93 40.71
  C 290.57 32.03 290.85 18.86 301.00 10.21
  C 301.19 10.05 301.37 10.05 301.55 10.22
  L 303.35 11.88
  C 303.53 12.04 303.53 12.20 303.34 12.36
  Z"
/>
<path fill="#fefefe" d="
  M 311.43 38.29
  C 319.68 30.96 318.96 20.10 311.17 12.35
  C 311.14 12.32 311.13 12.28 311.16 12.23
  C 311.67 11.37 312.34 10.66 313.18 10.10
  C 313.25 10.05 313.31 10.05 313.37 10.10
  C 323.65 18.43 323.64 31.79 313.76 40.50
  C 313.36 40.85 312.97 40.84 312.58 40.47
  L 311.41 39.32
  C 311.05 38.97 311.06 38.62 311.43 38.29
  Z"
/>
<path fill="#0e8ea7" fill-opacity="0.980" d="
  M 351.95 25.12
  C 353.58 25.81 354.38 27.19 354.35 29.24
  C 354.30 32.33 353.32 38.11 358.26 37.60
  C 358.51 37.58 358.68 37.68 358.79 37.90
  C 359.12 38.62 359.15 39.41 358.87 40.27
  C 358.82 40.45 358.70 40.55 358.51 40.56
  C 345.37 41.81 355.02 25.58 347.56 26.41
  C 347.03 26.47 346.71 26.24 346.58 25.73
  C 346.42 25.08 346.42 24.42 346.58 23.75
  C 346.68 23.34 347.08 23.08 347.49 23.14
  C 349.05 23.38 350.74 22.56 350.79 20.78
  C 350.85 18.53 350.47 15.25 351.65 13.25
  C 352.93 11.08 355.30 10.15 358.76 10.44
  C 358.84 10.44 358.89 10.48 358.90 10.56
  C 359.07 11.39 359.05 12.24 358.85 13.11
  C 358.80 13.29 358.69 13.37 358.51 13.36
  C 350.99 12.81 357.30 22.50 351.95 24.57
  C 351.50 24.74 351.50 24.93 351.95 25.12
  Z"
/>
<path fill="#84d660" d="
  M 116.42 13.00
  C 116.42 14.40 115.28 15.54 113.88 15.54
  C 112.48 15.54 111.34 14.40 111.34 13.00
  C 111.34 11.60 112.48 10.46 113.88 10.46
  C 115.28 10.46 116.42 11.60 116.42 13.00
  Z"
/>
<path fill="#fefefe" d="
  M 227.01 13.08
  C 227.01 14.51 225.85 15.67 224.42 15.67
  C 222.99 15.67 221.83 14.51 221.83 13.08
  C 221.83 11.65 222.99 10.49 224.42 10.49
  C 225.85 10.49 227.01 11.65 227.01 13.08
  Z"
/>
<path fill="#84d660" d="
  M 17.73 22.86
  L 14.34 22.90
  C 13.79 22.90 13.52 22.63 13.52 22.09
  L 13.51 20.98
  C 13.51 20.30 13.85 19.98 14.52 20.03
  L 17.48 20.22
  C 18.09 20.26 18.39 19.97 18.37 19.36
  C 18.32 17.93 18.45 16.55 18.76 15.20
  C 19.78 10.83 25.05 10.34 28.80 11.19
  C 29.25 11.29 29.47 11.57 29.46 12.02
  L 29.43 13.51
  C 29.42 14.17 29.09 14.43 28.44 14.28
  C 24.41 13.34 21.45 14.28 22.49 19.33
  C 22.57 19.70 22.80 19.89 23.19 19.90
  L 28.09 19.97
  C 28.56 19.98 28.92 20.38 28.88 20.85
  L 28.75 22.22
  C 28.71 22.66 28.47 22.88 28.03 22.88
  L 23.35 22.88
  C 22.78 22.88 22.32 23.34 22.33 23.90
  L 22.40 33.43
  C 22.40 33.82 22.21 33.99 21.83 33.95
  L 18.99 33.66
  C 18.59 33.61 18.39 33.39 18.39 32.99
  L 18.37 23.49
  C 18.37 23.06 18.16 22.85 17.73 22.86
  Z"
/>
<path fill="#84d660" d="
  M 95.53 21.32
  L 95.52 29.20
  C 95.52 30.30 96.36 31.21 97.46 31.30
  C 98.65 31.39 99.84 31.29 101.02 30.99
  C 101.67 30.83 101.99 31.08 102.00 31.75
  L 102.03 33.27
  C 102.04 33.74 101.71 34.14 101.25 34.23
  C 97.38 34.99 91.82 35.02 91.56 29.76
  C 91.43 27.14 91.42 24.31 91.55 21.26
  C 91.56 20.92 91.29 20.64 90.96 20.64
  L 87.53 20.67
  C 87.09 20.68 86.88 20.46 86.89 20.02
  L 86.93 18.21
  C 86.94 17.82 87.15 17.62 87.54 17.62
  L 90.81 17.63
  C 91.27 17.63 91.50 17.40 91.50 16.94
  L 91.51 13.95
  C 91.51 13.58 91.69 13.34 92.05 13.25
  L 94.79 12.53
  C 95.13 12.44 95.46 12.69 95.47 13.04
  L 95.51 16.95
  C 95.52 17.40 95.75 17.62 96.20 17.61
  L 100.98 17.50
  C 101.65 17.49 102.00 17.81 102.04 18.48
  L 102.12 19.79
  C 102.17 20.44 101.86 20.77 101.21 20.76
  L 96.18 20.67
  C 95.75 20.66 95.53 20.88 95.53 21.32
  Z"
/>
<path fill="#fefefe" d="
  M 185.01 21.82
  L 190.72 13.00
  C 190.78 12.90 190.89 12.84 191.01 12.84
  L 194.99 12.85
  C 195.27 12.85 195.43 13.16 195.27 13.39
  L 188.49 22.85
  C 188.41 22.96 188.40 23.12 188.48 23.24
  L 195.64 33.67
  C 195.80 33.89 195.64 34.20 195.36 34.20
  L 191.04 34.20
  C 190.92 34.20 190.81 34.14 190.75 34.04
  L 185.02 24.72
  C 184.84 24.43 184.39 24.55 184.39 24.90
  L 184.37 33.87
  C 184.37 34.06 184.22 34.21 184.03 34.21
  L 180.73 34.22
  C 180.54 34.22 180.39 34.07 180.39 33.88
  L 180.48 13.19
  C 180.48 13.01 180.63 12.86 180.81 12.85
  L 184.03 12.81
  C 184.21 12.80 184.37 12.96 184.37 13.14
  L 184.39 21.63
  C 184.39 21.97 184.83 22.10 185.01 21.82
  Z"
/>
<path fill="#84d660" d="
  M 55.62 19.33
  C 56.41 18.52 57.30 17.79 58.43 17.53
  C 63.81 16.31 65.53 19.96 65.33 24.56
  C 65.20 27.71 65.22 30.76 65.41 33.72
  C 65.43 34.04 65.28 34.20 64.97 34.20
  L 61.77 34.25
  C 61.45 34.25 61.29 34.09 61.29 33.77
  L 61.33 22.98
  C 61.34 20.92 60.35 20.19 58.38 20.78
  C 58.26 20.81 58.15 20.86 58.04 20.92
  C 56.29 21.89 55.41 23.25 55.39 24.98
  C 55.36 27.79 55.38 30.77 55.47 33.92
  C 55.48 34.12 55.38 34.22 55.18 34.23
  L 51.70 34.26
  C 51.49 34.27 51.39 34.16 51.39 33.95
  L 51.48 18.19
  C 51.48 17.80 51.67 17.62 52.06 17.63
  L 54.29 17.72
  C 54.59 17.73 54.84 17.98 54.85 18.28
  L 54.89 19.05
  C 54.92 19.71 55.16 19.80 55.62 19.33
  Z"
/>
<path fill="#84d660" d="
  M 78.31 30.98
  C 79.95 31.00 81.56 30.66 83.13 29.95
  C 83.21 29.92 83.25 29.95 83.25 30.04
  L 83.27 33.23
  C 83.27 33.40 83.19 33.52 83.03 33.59
  C 76.26 36.33 69.02 33.40 69.83 24.91
  C 70.48 18.11 77.07 16.26 82.88 17.92
  C 83.04 17.97 83.14 18.11 83.15 18.28
  L 83.25 21.48
  C 83.25 21.61 83.12 21.69 83.00 21.65
  C 78.93 20.18 76.20 20.52 74.82 22.65
  C 72.79 25.79 73.97 30.94 78.31 30.98
  Z"
/>
<path fill="#84d660" d="
  M 139.7270 27.4427
  C 139.66 31.40 136.41 34.55 132.4555 34.4893
  L 131.1356 34.4686
  C 127.18 34.41 124.03 31.15 124.0890 27.1970
  L 124.1330 24.3973
  C 124.20 20.44 127.45 17.29 131.4045 17.3507
  L 132.7244 17.3714
  C 136.68 17.43 139.83 20.69 139.7710 24.6430
  L 139.7270 27.4427
  Z
  M 131.8025 31.2764
  C 134.01 31.36 135.89 29.01 135.9973 26.0366
  C 136.11 23.06 134.41 20.58 132.1975 20.5036
  C 129.99 20.42 128.11 22.77 128.0027 25.7434
  C 127.89 28.72 129.59 31.20 131.8025 31.2764
  Z"
/>
<path fill="#84d660" d="
  M 147.01 18.96
  C 147.00 19.90 147.30 20.02 147.92 19.31
  C 149.07 18.02 150.42 17.36 151.98 17.32
  C 155.57 17.24 157.40 19.13 157.45 23.00
  C 157.50 26.67 157.52 30.27 157.50 33.79
  C 157.50 34.09 157.35 34.24 157.04 34.24
  L 153.99 34.25
  C 153.71 34.25 153.49 34.02 153.49 33.74
  L 153.50 22.94
  C 153.51 20.86 152.52 20.14 150.55 20.79
  C 150.40 20.84 150.26 20.91 150.12 20.99
  C 148.34 22.05 147.46 23.46 147.48 25.22
  C 147.52 28.05 147.55 30.89 147.58 33.72
  C 147.59 34.07 147.42 34.25 147.07 34.25
  L 144.01 34.25
  C 143.69 34.25 143.53 34.09 143.53 33.76
  L 143.64 18.16
  C 143.64 17.87 143.79 17.72 144.09 17.72
  L 146.50 17.72
  C 146.80 17.72 147.04 17.96 147.03 18.25
  L 147.01 18.96
  Z"
/>
<path fill="#fefefe" d="
  M 208.65 32.51
  C 204.95 36.19 198.03 35.17 198.50 28.70
  C 198.79 24.78 204.36 23.78 207.54 24.18
  C 208.44 24.29 208.84 23.90 208.75 22.99
  L 208.69 22.37
  C 208.59 21.38 208.06 20.77 207.11 20.52
  C 204.95 19.97 202.54 20.27 199.88 21.43
  C 199.82 21.46 199.79 21.44 199.79 21.37
  L 199.70 18.75
  C 199.69 18.51 199.84 18.30 200.07 18.22
  C 201.92 17.57 204.13 17.29 206.70 17.38
  C 211.49 17.54 212.87 20.04 212.69 24.42
  C 212.56 27.70 212.56 30.81 212.69 33.75
  C 212.70 34.08 212.55 34.24 212.22 34.24
  L 209.76 34.25
  C 209.43 34.25 209.27 34.09 209.28 33.76
  L 209.29 32.78
  C 209.30 32.17 209.08 32.08 208.65 32.51
  Z
  M 208.7509 27.6905
  C 208.29 26.56 206.52 26.20 204.8012 26.9046
  C 203.08 27.61 202.07 29.09 202.5291 30.2295
  C 202.99 31.36 204.76 31.72 206.4788 31.0154
  C 208.20 30.31 209.21 28.83 208.7509 27.6905
  Z"
/>
<path fill="#fefefe" d="
  M 258.95 26.80
  C 257.39 26.80 257.02 27.47 257.83 28.80
  L 258.18 29.39
  C 258.97 30.70 260.13 31.38 261.66 31.45
  C 263.54 31.53 265.22 31.30 266.71 30.76
  C 267.40 30.51 267.74 30.75 267.74 31.48
  L 267.73 32.94
  C 267.72 33.57 267.41 33.94 266.79 34.05
  C 261.25 35.04 254.95 35.17 253.74 28.25
  C 252.70 22.26 256.35 15.91 263.29 17.55
  C 267.22 18.48 268.95 21.35 268.48 26.18
  C 268.45 26.59 268.22 26.79 267.81 26.79
  L 258.95 26.80
  Z
  M 258.25 24.13
  L 264.07 24.19
  C 264.34 24.19 264.55 23.97 264.56 23.71
  L 264.56 23.57
  C 264.57 21.75 263.15 20.26 261.37 20.24
  L 261.03 20.24
  C 259.25 20.22 257.79 21.69 257.78 23.51
  L 257.78 23.65
  C 257.77 23.92 257.99 24.13 258.25 24.13
  Z"
/>
<path fill="#fefefe" d="
  M 276.43 19.49
  C 277.97 18.15 279.44 17.45 280.84 17.39
  C 284.39 17.24 286.23 19.02 286.35 22.73
  C 286.46 26.37 286.48 30.07 286.40 33.83
  C 286.40 34.08 286.27 34.21 286.01 34.21
  L 282.98 34.23
  C 282.65 34.23 282.48 34.06 282.48 33.73
  L 282.48 23.15
  C 282.48 21.08 281.48 20.32 279.49 20.88
  C 279.36 20.92 279.23 20.97 279.11 21.04
  C 277.31 22.07 276.42 23.43 276.45 25.11
  C 276.51 28.05 276.52 30.94 276.48 33.77
  C 276.48 34.02 276.27 34.23 276.02 34.23
  L 272.99 34.22
  C 272.67 34.22 272.51 34.06 272.51 33.74
  L 272.52 18.21
  C 272.52 17.86 272.70 17.68 273.05 17.69
  L 275.54 17.73
  C 275.91 17.74 276.08 17.93 276.03 18.30
  L 275.92 19.21
  C 275.85 19.76 276.02 19.85 276.43 19.49
  Z"
/>
<path fill="#84d660" d="
  M 42.53 32.53
  C 41.86 33.44 41.05 34.00 40.10 34.22
  C 35.55 35.28 33.22 33.47 33.12 28.79
  C 33.05 25.05 33.01 21.54 33.00 18.26
  C 33.00 17.85 33.34 17.51 33.75 17.52
  L 36.49 17.57
  C 36.93 17.58 37.14 17.80 37.12 18.24
  L 36.75 28.77
  C 36.69 30.42 38.33 31.59 39.87 31.01
  C 41.68 30.33 43.13 28.31 43.01 26.23
  C 42.84 23.34 42.81 20.62 42.93 18.09
  C 42.94 17.83 43.16 17.62 43.42 17.62
  L 46.19 17.62
  C 46.56 17.62 46.75 17.81 46.75 18.19
  L 46.82 33.47
  C 46.82 34.00 46.56 34.26 46.03 34.26
  L 44.18 34.26
  C 43.70 34.26 43.35 33.80 43.48 33.33
  C 43.54 33.10 43.53 32.87 43.44 32.64
  C 43.20 32.07 42.90 32.03 42.53 32.53
  Z"
/>
<path fill="#84d660" d="
  M 112.18 30.72
  L 112.13 21.18
  C 112.13 20.90 111.90 20.67 111.62 20.68
  L 107.79 20.71
  C 107.51 20.72 107.28 20.49 107.28 20.21
  L 107.26 18.04
  C 107.26 17.75 107.49 17.52 107.78 17.53
  L 115.71 17.61
  C 116.00 17.62 116.23 17.85 116.22 18.14
  L 115.95 30.67
  C 115.95 30.96 116.19 31.20 116.48 31.19
  L 120.47 31.01
  C 120.75 31.00 121.00 31.23 121.00 31.51
  L 121.05 33.69
  C 121.05 33.98 120.83 34.21 120.54 34.21
  L 107.18 34.23
  C 106.89 34.23 106.66 33.99 106.67 33.70
  L 106.73 31.64
  C 106.73 31.36 106.97 31.13 107.25 31.14
  L 111.66 31.23
  C 111.94 31.24 112.18 31.00 112.18 30.72
  Z"
/>
<path fill="#fefefe" d="
  M 227.00 31.24
  L 231.09 31.23
  C 231.31 31.23 231.49 31.41 231.49 31.63
  L 231.50 33.85
  C 231.50 34.07 231.32 34.25 231.10 34.25
  L 217.76 34.25
  C 217.54 34.25 217.36 34.07 217.36 33.85
  L 217.37 31.63
  C 217.37 31.41 217.55 31.23 217.77 31.23
  L 222.21 31.24
  C 222.43 31.24 222.61 31.06 222.61 30.84
  L 222.63 21.12
  C 222.63 20.91 222.45 20.73 222.24 20.72
  L 218.19 20.65
  C 217.96 20.64 217.79 20.46 217.80 20.23
  L 217.88 18.08
  C 217.88 17.87 218.06 17.70 218.27 17.70
  L 226.23 17.60
  C 226.46 17.60 226.64 17.78 226.64 18.01
  L 226.60 30.84
  C 226.60 31.06 226.78 31.24 227.00 31.24
  Z"
/>
<path fill="#fefefe" d="
  M 242.01 30.73
  L 248.95 30.71
  C 249.28 30.71 249.44 30.87 249.45 31.20
  L 249.47 33.76
  C 249.47 34.08 249.31 34.24 248.99 34.24
  L 237.06 34.25
  C 235.74 34.25 235.00 32.74 235.81 31.70
  L 243.64 21.65
  C 243.88 21.34 243.65 20.89 243.26 20.91
  L 236.71 21.11
  C 236.43 21.12 236.29 20.98 236.28 20.71
  L 236.17 18.20
  C 236.16 17.85 236.32 17.68 236.67 17.68
  L 248.75 17.70
  C 249.07 17.70 249.33 17.96 249.32 18.28
  C 249.28 19.43 249.50 20.19 248.72 21.20
  C 246.37 24.23 244.03 27.20 241.71 30.12
  C 241.52 30.37 241.69 30.73 242.01 30.73
  Z"
/>
<path fill="#fefefe" d="
  M 356.78 57.23
  L 358.60 58.90
  C 358.69 58.98 358.69 59.06 358.61 59.14
  C 350.24 67.95 350.23 76.83 358.58 85.77
  C 358.69 85.88 358.68 86.00 358.56 86.11
  L 356.53 87.92
  C 356.41 88.03 356.29 88.03 356.16 87.92
  C 345.91 78.87 345.96 66.05 356.26 57.22
  C 356.41 57.09 356.64 57.10 356.78 57.23
  Z"
/>
<path fill="#c670dd" d="
  M 301.02 78.25
  L 304.66 78.16
  C 304.99 78.16 305.25 78.41 305.26 78.74
  L 305.28 80.60
  C 305.29 80.93 305.03 81.19 304.70 81.19
  L 291.66 81.19
  C 291.32 81.19 291.06 80.91 291.08 80.58
  L 291.18 78.85
  C 291.20 78.54 291.44 78.31 291.75 78.30
  L 295.93 78.24
  C 296.25 78.23 296.50 77.98 296.50 77.66
  L 296.48 61.83
  C 296.48 61.52 296.22 61.26 295.91 61.25
  L 292.34 61.22
  C 292.02 61.21 291.77 60.96 291.76 60.64
  L 291.75 58.77
  C 291.74 58.45 292.00 58.19 292.32 58.19
  L 299.89 58.17
  C 300.21 58.17 300.47 58.43 300.47 58.75
  L 300.43 77.67
  C 300.43 77.99 300.70 78.25 301.02 78.25
  Z"
/>
<path fill="#fde068" d="
  M 366.64 65.97
  L 366.09 58.65
  C 366.07 58.38 366.29 58.15 366.56 58.15
  L 369.93 58.24
  C 370.19 58.24 370.39 58.46 370.38 58.72
  L 370.06 65.93
  C 370.05 66.18 369.85 66.37 369.60 66.37
  L 367.10 66.40
  C 366.86 66.40 366.66 66.21 366.64 65.97
  Z"
/>
<path fill="#fefefe" d="
  M 241.23 77.84
  L 241.21 61.68
  C 241.21 61.46 241.03 61.28 240.81 61.28
  L 236.90 61.26
  C 236.69 61.26 236.51 61.08 236.51 60.87
  L 236.48 58.65
  C 236.48 58.43 236.66 58.25 236.88 58.25
  L 244.85 58.25
  C 245.07 58.25 245.25 58.43 245.25 58.65
  L 245.25 77.84
  C 245.25 78.06 245.43 78.24 245.65 78.24
  L 249.60 78.25
  C 249.80 78.25 249.97 78.41 249.99 78.61
  L 250.19 80.82
  C 250.21 81.06 250.03 81.26 249.79 81.26
  L 236.18 81.25
  C 235.96 81.25 235.78 81.07 235.78 80.85
  L 235.79 78.65
  C 235.79 78.43 235.97 78.25 236.19 78.25
  L 240.83 78.24
  C 241.05 78.24 241.23 78.06 241.23 77.84
  Z"
/>
<path fill="#fde068" d="
  M 373.36 66.05
  L 372.85 58.59
  C 372.83 58.38 372.99 58.21 373.20 58.21
  L 376.68 58.26
  C 376.87 58.26 377.03 58.43 377.02 58.62
  L 376.63 66.05
  C 376.62 66.23 376.46 66.38 376.28 66.38
  L 373.71 66.38
  C 373.52 66.38 373.37 66.24 373.36 66.05
  Z"
/>
<path fill="#fefefe" d="
  M 184.52 66.56
  C 185.34 65.90 186.06 65.13 187.09 64.79
  C 191.60 63.35 194.45 65.97 194.42 70.36
  C 194.40 74.29 194.38 77.84 194.37 81.01
  C 194.37 81.14 194.27 81.24 194.15 81.24
  L 190.79 81.26
  C 190.57 81.26 190.46 81.15 190.47 80.93
  C 190.59 77.31 190.56 73.67 190.37 70.00
  C 190.28 68.09 189.31 67.41 187.48 67.94
  C 187.34 67.98 187.21 68.04 187.08 68.11
  C 185.29 69.12 184.40 70.48 184.43 72.17
  C 184.47 74.85 184.48 77.71 184.45 80.75
  C 184.44 81.08 184.28 81.24 183.95 81.25
  L 181.00 81.25
  C 180.67 81.26 180.50 81.09 180.50 80.75
  L 180.51 65.49
  C 180.52 64.99 180.77 64.74 181.26 64.74
  L 183.26 64.74
  C 183.58 64.74 183.86 64.98 183.92 65.30
  C 183.97 65.61 183.98 65.91 183.93 66.22
  C 183.82 66.85 184.02 66.97 184.52 66.56
  Z"
/>
<path fill="#fefefe" d="
  M 205.88 74.84
  C 203.18 73.69 198.60 73.30 199.25 68.95
  C 200.02 63.71 207.09 64.00 211.08 64.86
  C 211.15 64.87 211.19 64.92 211.20 64.99
  C 211.35 66.00 211.34 66.97 211.17 67.88
  C 211.15 67.97 211.10 68.01 211.01 67.98
  C 208.77 67.25 206.62 67.09 204.56 67.52
  C 204.13 67.61 203.78 67.89 203.60 68.28
  C 203.19 69.20 203.66 70.07 204.57 70.42
  C 207.74 71.64 214.20 72.64 212.32 77.87
  C 210.64 82.54 203.61 81.80 199.66 81.15
  C 199.47 81.12 199.34 81.00 199.29 80.81
  C 199.07 79.94 199.02 78.98 199.15 77.91
  C 199.18 77.66 199.43 77.50 199.67 77.59
  C 202.40 78.58 204.42 78.90 205.71 78.55
  C 209.32 77.58 209.37 76.34 205.88 74.84
  Z"
/>
<path fill="#fefefe" d="
  M 144.34 69.30
  C 146.45 64.47 151.75 63.79 156.52 64.95
  C 156.83 65.02 156.98 65.22 156.99 65.53
  L 157.02 68.05
  C 157.03 68.37 156.87 68.52 156.55 68.49
  C 154.96 68.33 153.40 67.57 151.79 67.83
  C 146.29 68.74 146.27 77.33 152.01 78.05
  C 153.49 78.24 155.01 77.71 156.46 77.45
  C 156.93 77.37 157.15 77.57 157.14 78.04
  L 157.09 79.85
  C 157.08 80.47 156.77 80.86 156.16 81.01
  C 153.72 81.62 151.34 81.67 149.02 81.16
  C 143.68 79.98 142.48 73.56 144.34 69.30
  Z"
/>
<path fill="#fefefe" d="
  M 167.4173 81.6742
  C 163.00 80.92 160.08 76.42 160.8961 71.6319
  C 161.71 66.84 165.96 63.57 170.3827 64.3258
  C 174.80 65.08 177.72 69.58 176.9039 74.3681
  C 176.09 79.16 171.84 82.43 167.4173 81.6742
  Z
  M 172.6846 71.3329
  C 172.70 69.41 171.15 67.83 169.2252 67.8126
  L 168.6852 67.8078
  C 166.76 67.79 165.18 69.34 165.1649 71.2673
  L 165.1354 74.6471
  C 165.12 76.57 166.67 78.15 168.5948 78.1674
  L 169.1348 78.1722
  C 171.06 78.19 172.64 76.64 172.6551 74.7127
  L 172.6846 71.3329
  Z"
/>
<path fill="#fefefe" d="
  M 222.6065 81.6482
  C 218.17 80.84 215.28 76.31 216.1515 71.5310
  C 217.02 66.75 221.32 63.53 225.7535 64.3318
  C 230.19 65.14 233.08 69.67 232.2085 74.4490
  C 231.34 79.23 227.04 82.45 222.6065 81.6482
  Z
  M 224.0863 78.3492
  C 226.27 78.39 228.09 76.01 228.1394 73.0491
  C 228.19 70.08 226.46 67.65 224.2737 67.6108
  C 222.09 67.57 220.27 69.95 220.2206 72.9109
  C 220.17 75.88 221.90 78.31 224.0863 78.3492
  Z"
/>
<path fill="#fefefe" d="
  M 258.92 73.97
  C 257.46 73.96 257.12 74.58 257.91 75.82
  C 258.06 76.05 258.20 76.26 258.33 76.47
  C 259.20 77.84 260.44 78.52 262.06 78.51
  C 263.85 78.51 265.49 78.26 266.99 77.77
  C 267.48 77.62 267.72 77.79 267.72 78.30
  L 267.73 79.99
  C 267.73 80.57 267.31 81.06 266.74 81.15
  C 263.68 81.66 261.12 81.69 259.05 81.25
  C 250.93 79.51 252.00 65.28 260.46 64.45
  C 266.10 63.90 269.17 67.75 268.46 73.40
  C 268.41 73.81 268.19 74.01 267.78 74.01
  L 258.92 73.97
  Z
  M 258.27 71.31
  L 264.08 71.17
  C 264.35 71.17 264.57 70.94 264.56 70.67
  L 264.56 70.50
  C 264.52 68.68 263.03 67.24 261.23 67.28
  L 260.95 67.28
  C 259.15 67.32 257.72 68.83 257.76 70.66
  L 257.76 70.83
  C 257.77 71.10 258.00 71.31 258.27 71.31
  Z"
/>
<path fill="#c670dd" d="
  M 314.8556 81.6619
  C 310.44 80.90 307.52 76.41 308.3485 71.6279
  C 309.17 66.85 313.43 63.59 317.8444 64.3581
  C 322.26 65.12 325.18 69.61 324.3515 74.3921
  C 323.53 79.17 319.27 82.43 314.8556 81.6619
  Z
  M 316.3136 78.3897
  C 318.54 78.41 320.37 76.02 320.3998 73.0422
  C 320.43 70.07 318.65 67.63 316.4264 67.6103
  C 314.20 67.59 312.37 69.98 312.3402 72.9578
  C 312.31 75.93 314.09 78.37 316.3136 78.3897
  Z"
/>
<path fill="#c670dd" d="
  M 340.88 68.20
  C 342.59 73.90 337.44 76.52 332.45 75.44
  C 331.70 75.28 331.30 75.58 331.25 76.34
  C 331.23 76.69 331.34 77.04 331.57 77.37
  C 331.78 77.67 332.11 77.85 332.47 77.87
  C 335.52 78.01 343.08 77.59 342.80 82.64
  C 342.45 88.83 333.62 88.74 329.47 87.26
  C 326.57 86.23 326.09 82.75 328.58 80.85
  C 329.00 80.53 329.04 79.91 328.67 79.54
  C 327.04 77.91 327.66 75.96 328.90 74.38
  C 329.16 74.04 329.18 73.59 328.95 73.24
  C 326.84 70.01 328.45 65.97 332.03 64.85
  C 333.38 64.43 334.94 64.35 336.71 64.60
  C 338.54 64.87 340.42 64.89 342.33 64.68
  C 342.72 64.64 343.06 64.96 343.03 65.35
  L 342.92 66.98
  C 342.89 67.39 342.68 67.58 342.27 67.56
  L 341.42 67.52
  C 341.05 67.50 340.77 67.85 340.88 68.20
  Z
  M 337.66 70.10
  C 337.66 68.43 336.31 67.08 334.64 67.08
  C 332.97 67.08 331.62 68.43 331.62 70.10
  C 331.62 71.77 332.97 73.12 334.64 73.12
  C 336.31 73.12 337.66 71.77 337.66 70.10
  Z
  M 338.9554 82.9959
  C 338.90 81.76 337.01 80.85 334.7345 80.9525
  C 332.46 81.06 330.67 82.15 330.7246 83.3841
  C 330.78 84.62 332.67 85.53 334.9455 85.4275
  C 337.22 85.32 339.01 84.23 338.9554 82.9959
  Z"
/>
<path fill="#fefefe" d="
  M 282.54 78.46
  C 282.54 80.21 281.13 81.62 279.38 81.62
  C 277.63 81.62 276.22 80.21 276.22 78.46
  C 276.22 76.71 277.63 75.30 279.38 75.30
  C 281.13 75.30 282.54 76.71 282.54 78.46
  Z"
/>
<path fill="#fde068" d="
  M 263.90 125.91
  C 263.27 126.35 262.72 127.14 262.01 127.44
  C 254.38 130.67 252.20 122.03 253.65 116.39
  C 254.72 112.21 259.41 110.14 263.44 111.10
  C 263.79 111.18 264.12 110.92 264.11 110.56
  L 264.05 105.19
  C 264.04 104.85 264.21 104.68 264.56 104.68
  L 267.49 104.68
  C 267.87 104.68 268.06 104.87 268.06 105.24
  L 268.17 127.27
  C 268.18 127.57 268.03 127.72 267.73 127.73
  L 265.19 127.78
  C 264.86 127.79 264.59 127.52 264.58 127.19
  L 264.57 126.26
  C 264.56 125.72 264.34 125.60 263.90 125.91
  Z
  M 263.36 114.19
  C 257.57 112.93 256.55 118.38 257.60 122.53
  C 258.03 124.23 259.73 125.38 261.39 124.40
  C 262.96 123.47 264.22 121.95 264.07 119.96
  C 263.96 118.32 263.96 116.71 264.07 115.13
  C 264.11 114.61 263.87 114.30 263.36 114.19
  Z"
/>
<path fill="#fde068" d="
  M 332.50 112.58
  C 336.50 108.54 341.77 111.41 342.65 116.59
  C 344.32 126.45 336.77 130.06 328.45 127.14
  C 328.06 127.01 327.87 126.73 327.87 126.32
  L 327.88 105.29
  C 327.88 104.90 328.07 104.71 328.46 104.70
  L 331.58 104.64
  C 331.88 104.63 332.03 104.78 332.02 105.08
  L 331.89 112.32
  C 331.88 112.92 332.08 113.01 332.50 112.58
  Z
  M 338.60 117.26
  C 337.67 111.60 331.88 114.96 331.96 118.47
  C 332.01 120.52 332.02 122.37 332.00 124.02
  C 331.99 124.51 332.24 124.75 332.73 124.75
  L 335.57 124.74
  C 335.94 124.74 336.27 124.63 336.56 124.40
  C 338.45 122.91 339.13 120.53 338.60 117.26
  Z"
/>
<path fill="#fde068" d="
  M 479.38 112.84
  C 480.63 111.95 481.74 110.95 483.37 110.81
  C 487.82 110.42 489.34 113.91 489.25 117.79
  C 489.17 121.14 489.17 124.31 489.24 127.29
  C 489.25 127.60 489.10 127.75 488.79 127.75
  L 485.52 127.74
  C 485.33 127.74 485.18 127.59 485.19 127.40
  L 485.24 116.78
  C 485.25 114.81 484.28 114.00 482.34 114.34
  C 482.17 114.37 482.02 114.42 481.88 114.51
  C 480.13 115.56 479.25 116.90 479.25 118.53
  C 479.24 121.27 479.25 124.18 479.27 127.27
  C 479.28 127.59 479.12 127.75 478.79 127.75
  L 475.74 127.76
  C 475.40 127.76 475.23 127.59 475.23 127.24
  L 475.26 104.84
  C 475.26 104.70 475.33 104.63 475.47 104.64
  L 478.98 104.70
  C 479.13 104.70 479.20 104.78 479.21 104.93
  C 479.34 107.47 479.27 110.03 479.00 112.62
  C 478.98 112.82 479.21 112.96 479.38 112.84
  Z"
/>
<path fill="#fde068" d="
  M 669.27 125.95
  C 662.52 132.21 657.43 124.30 658.72 117.81
  C 659.75 112.60 663.16 110.33 668.93 111.02
  C 669.32 111.07 669.51 110.90 669.51 110.51
  L 669.50 105.21
  C 669.50 104.86 669.68 104.68 670.03 104.68
  L 672.96 104.67
  C 673.31 104.67 673.49 104.85 673.49 105.21
  L 673.52 127.00
  C 673.52 127.51 673.26 127.77 672.75 127.77
  L 670.78 127.76
  C 670.29 127.76 670.03 127.52 670.01 127.03
  L 669.96 126.23
  C 669.93 125.64 669.70 125.55 669.27 125.95
  Z
  M 663.09 122.47
  C 663.30 123.36 663.80 124.06 664.57 124.56
  C 664.86 124.75 665.18 124.82 665.52 124.78
  C 667.51 124.54 669.62 122.39 669.55 120.23
  C 669.48 118.41 669.47 116.68 669.52 115.03
  C 669.53 114.64 669.34 114.39 668.95 114.30
  C 662.99 112.85 662.08 118.30 663.09 122.47
  Z"
/>
<path fill="#fde068" d="
  M 367.79 110.47
  L 367.82 107.57
  C 367.83 107.16 368.03 106.89 368.43 106.77
  L 371.34 105.92
  C 371.81 105.78 372.04 105.96 372.03 106.45
  L 371.94 110.55
  C 371.93 110.97 372.13 111.18 372.55 111.17
  L 378.03 111.08
  C 378.25 111.08 378.37 111.19 378.38 111.41
  L 378.49 113.75
  C 378.50 114.09 378.34 114.26 378.00 114.26
  L 372.47 114.25
  C 372.11 114.25 371.93 114.43 371.94 114.78
  L 372.02 123.26
  C 372.03 124.14 372.76 124.84 373.64 124.81
  L 378.15 124.65
  C 378.34 124.64 378.44 124.74 378.44 124.93
  L 378.39 127.20
  C 378.39 127.41 378.29 127.54 378.09 127.59
  C 373.32 128.80 367.73 128.52 367.75 121.95
  C 367.76 119.48 367.78 117.10 367.81 114.81
  C 367.81 114.44 367.62 114.25 367.25 114.25
  L 363.77 114.26
  C 363.45 114.26 363.30 114.10 363.31 113.77
  L 363.41 111.51
  C 363.43 111.15 363.62 110.98 363.98 111.00
  L 367.03 111.17
  C 367.53 111.20 367.78 110.96 367.79 110.47
  Z"
/>
<path fill="#fde068" d="
  M 390.48 114.89
  L 390.50 122.92
  C 390.50 123.83 391.18 124.61 392.08 124.72
  C 393.67 124.93 395.21 124.87 396.70 124.53
  C 396.91 124.49 397.01 124.57 397.00 124.78
  L 396.92 127.08
  C 396.91 127.34 396.79 127.51 396.54 127.58
  C 392.02 128.83 386.34 128.53 386.36 122.27
  C 386.37 119.74 386.39 117.29 386.42 114.93
  C 386.43 114.48 386.21 114.25 385.75 114.25
  L 382.26 114.25
  C 381.93 114.25 381.77 114.09 381.78 113.76
  L 381.80 111.66
  C 381.80 111.30 381.98 111.12 382.34 111.13
  L 385.86 111.17
  C 386.17 111.18 386.43 110.92 386.42 110.60
  L 386.36 107.82
  C 386.35 107.31 386.69 106.85 387.18 106.71
  L 389.75 105.97
  C 390.23 105.84 390.47 106.02 390.48 106.52
  L 390.48 110.61
  C 390.49 111.03 390.70 111.24 391.11 111.23
  L 396.42 111.19
  C 396.68 111.19 396.90 111.39 396.91 111.65
  L 397.03 113.72
  C 397.05 114.01 396.81 114.26 396.52 114.26
  L 391.11 114.25
  C 390.69 114.25 390.48 114.46 390.48 114.89
  Z"
/>
<path fill="#fde068" d="
  M 464.22 115.02
  L 464.22 123.16
  C 464.22 124.08 464.99 124.82 465.91 124.79
  L 470.05 124.66
  C 470.40 124.65 470.58 124.82 470.57 125.17
  L 470.56 126.98
  C 470.56 127.33 470.39 127.56 470.05 127.65
  C 464.85 129.14 459.86 128.07 459.97 121.54
  C 460.00 119.12 460.01 116.87 459.99 114.79
  C 459.99 114.43 459.81 114.25 459.45 114.25
  L 456.03 114.25
  C 455.71 114.25 455.55 114.09 455.56 113.78
  L 455.59 111.73
  C 455.60 111.28 455.82 111.07 456.27 111.09
  L 459.28 111.21
  C 459.70 111.23 460.04 110.89 460.03 110.47
  L 459.96 107.49
  C 459.95 107.10 460.14 106.86 460.51 106.76
  L 463.69 105.95
  C 463.98 105.87 464.13 105.98 464.14 106.29
  L 464.18 110.46
  C 464.19 110.97 464.45 111.22 464.96 111.21
  L 470.02 111.07
  C 470.33 111.06 470.49 111.21 470.51 111.52
  L 470.63 113.68
  C 470.65 114.07 470.46 114.26 470.07 114.26
  L 464.98 114.25
  C 464.47 114.25 464.22 114.51 464.22 115.02
  Z"
/>
<path fill="#fde068" d="
  M 606.81 114.26
  L 603.44 114.25
  C 603.13 114.25 602.89 114.01 602.88 113.70
  L 602.87 111.75
  C 602.86 111.32 603.07 111.11 603.50 111.10
  L 607.08 111.10
  C 607.36 111.10 607.50 110.96 607.50 110.67
  L 607.50 107.36
  C 607.50 107.08 607.63 106.90 607.90 106.82
  L 611.02 105.91
  C 611.27 105.84 611.52 106.02 611.52 106.28
  L 611.52 110.48
  C 611.52 110.87 611.84 111.19 612.23 111.18
  L 617.43 111.09
  C 617.76 111.08 618.03 111.35 618.03 111.68
  L 618.04 113.73
  C 618.04 114.02 617.81 114.26 617.52 114.26
  L 612.13 114.25
  C 611.72 114.25 611.51 114.46 611.52 114.87
  L 611.54 122.88
  C 611.54 124.01 612.50 124.92 613.63 124.85
  L 617.98 124.60
  C 618.07 124.59 618.12 124.64 618.12 124.73
  L 618.08 127.22
  C 618.07 127.42 617.97 127.54 617.78 127.59
  C 613.33 128.65 607.57 128.76 607.49 122.51
  C 607.46 120.00 607.48 117.51 607.55 115.02
  C 607.56 114.51 607.32 114.26 606.81 114.26
  Z"
/>
<path fill="#fde068" d="
  M 226.25 110.12
  L 226.25 127.33
  C 226.25 127.57 226.06 127.76 225.82 127.76
  L 222.58 127.75
  C 222.34 127.75 222.15 127.56 222.15 127.32
  L 222.16 110.13
  C 222.16 109.89 221.97 109.70 221.73 109.70
  L 216.71 109.75
  C 216.48 109.75 216.29 109.56 216.28 109.33
  L 216.23 106.82
  C 216.22 106.58 216.42 106.38 216.66 106.38
  L 231.62 106.39
  C 231.85 106.39 232.04 106.57 232.05 106.80
  L 232.15 109.32
  C 232.16 109.57 231.96 109.78 231.71 109.77
  L 226.69 109.69
  C 226.45 109.68 226.25 109.88 226.25 110.12
  Z"
/>
<path fill="#fde068" d="
  M 241.1971 128.1712
  C 236.76 127.41 233.84 122.89 234.6689 118.0828
  C 235.50 113.28 239.77 110.00 244.2029 110.7688
  C 248.64 111.53 251.56 116.05 250.7311 120.8572
  C 249.90 125.66 245.63 128.94 241.1971 128.1712
  Z
  M 242.6652 124.7995
  C 244.85 124.83 246.65 122.46 246.6896 119.4952
  C 246.73 116.54 245.00 114.11 242.8148 114.0805
  C 240.63 114.05 238.83 116.42 238.7904 119.3848
  C 238.75 122.34 240.48 124.77 242.6652 124.7995
  Z"
/>
<path fill="#fde068" d="
  M 282.13 126.18
  C 281.48 126.59 280.97 127.19 280.23 127.47
  C 277.40 128.56 275.19 128.31 273.59 126.73
  C 271.66 124.83 271.42 122.75 272.86 120.48
  C 274.22 118.35 276.92 117.40 280.97 117.62
  C 282.32 117.70 282.78 117.10 282.35 115.81
  L 282.27 115.56
  C 281.86 114.35 281.02 113.73 279.74 113.72
  C 277.63 113.70 275.70 114.08 273.93 114.85
  C 273.57 115.01 273.38 114.89 273.37 114.50
  L 273.29 112.53
  C 273.27 112.14 273.44 111.89 273.81 111.76
  C 278.22 110.22 286.37 109.66 286.37 116.48
  C 286.37 119.95 286.38 123.51 286.40 127.14
  C 286.41 127.56 286.20 127.77 285.78 127.77
  L 283.58 127.76
  C 283.25 127.76 283.04 127.60 282.93 127.29
  C 282.85 127.07 282.82 126.83 282.83 126.58
  C 282.85 126.01 282.62 125.87 282.13 126.18
  Z
  M 282.4524 121.2588
  C 282.03 120.15 280.28 119.78 278.5400 120.4388
  C 276.80 121.10 275.73 122.53 276.1476 123.6412
  C 276.57 124.75 278.32 125.12 280.0600 124.4612
  C 281.80 123.80 282.87 122.37 282.4524 121.2588
  Z"
/>
<path fill="#fde068" d="
  M 350.96 120.45
  C 349.79 120.46 349.46 120.99 349.97 122.04
  L 350.32 122.76
  C 350.93 124.03 351.93 124.70 353.34 124.77
  C 355.42 124.88 357.54 124.72 359.70 124.30
  C 359.90 124.26 360.00 124.34 360.00 124.54
  L 360.01 126.79
  C 360.01 127.05 359.89 127.22 359.64 127.29
  C 339.66 133.18 343.48 106.81 356.17 111.21
  C 359.63 112.41 361.15 115.27 360.73 119.79
  C 360.70 120.22 360.47 120.43 360.04 120.43
  L 350.96 120.45
  Z
  M 350.31 117.65
  L 356.35 117.57
  C 356.60 117.57 356.79 117.37 356.79 117.13
  L 356.79 117.00
  C 356.76 115.17 355.26 113.71 353.43 113.73
  L 353.15 113.73
  C 351.31 113.75 349.84 115.25 349.87 117.08
  L 349.87 117.21
  C 349.87 117.46 350.07 117.65 350.31 117.65
  Z"
/>
<path fill="#fde068" d="
  M 406.00 120.45
  C 404.98 120.45 404.69 120.91 405.13 121.83
  L 405.69 122.99
  C 406.14 123.93 406.88 124.48 407.91 124.63
  C 410.29 124.98 412.64 124.82 414.95 124.15
  C 415.13 124.10 415.22 124.16 415.22 124.35
  L 415.23 127.00
  C 415.24 127.13 415.15 127.25 415.02 127.29
  C 407.93 129.24 400.40 128.23 401.09 118.56
  C 401.85 108.07 416.74 107.81 416.20 119.75
  C 416.17 120.22 415.92 120.46 415.45 120.46
  L 406.00 120.45
  Z
  M 405.72 117.65
  L 411.56 117.59
  C 411.81 117.59 412.02 117.38 412.02 117.12
  L 412.01 116.97
  C 411.99 115.17 410.53 113.72 408.74 113.74
  L 408.46 113.74
  C 406.67 113.76 405.24 115.24 405.25 117.05
  L 405.26 117.20
  C 405.26 117.45 405.47 117.65 405.72 117.65
  Z"
/>
<path fill="#fde068" d="
  M 425.12 112.81
  C 426.88 110.88 428.95 110.31 431.33 111.09
  C 433.81 111.90 434.53 114.43 434.75 116.77
  C 434.80 117.27 434.57 117.52 434.07 117.53
  L 431.31 117.55
  C 431.03 117.55 430.79 117.34 430.74 117.06
  L 430.49 115.65
  C 430.27 114.36 428.84 113.66 427.69 114.29
  C 426.21 115.10 424.65 116.51 424.67 118.34
  C 424.69 121.27 424.72 124.22 424.76 127.21
  C 424.76 127.56 424.59 127.73 424.24 127.74
  L 421.22 127.77
  C 420.85 127.78 420.66 127.59 420.66 127.22
  L 420.73 111.70
  C 420.74 111.33 420.93 111.14 421.30 111.13
  L 423.70 111.10
  C 424.11 111.09 424.33 111.30 424.35 111.71
  L 424.39 112.55
  C 424.42 113.22 424.67 113.31 425.12 112.81
  Z"
/>
<path fill="#fde068" d="
  M 503.53 115.80
  L 503.44 115.56
  C 503.03 114.33 502.17 113.73 500.87 113.75
  C 498.52 113.78 496.56 114.17 494.99 114.92
  C 494.69 115.07 494.54 114.97 494.53 114.63
  L 494.50 112.30
  C 494.49 112.05 494.61 111.88 494.85 111.79
  C 499.09 110.22 507.63 109.55 507.62 116.38
  C 507.61 119.75 507.66 123.25 507.75 126.86
  C 507.76 127.31 507.54 127.60 507.11 127.73
  C 505.26 128.26 504.21 127.83 503.96 126.43
  C 503.88 125.96 503.66 125.89 503.31 126.20
  C 501.34 127.97 499.15 128.54 496.74 127.89
  C 493.47 127.01 492.24 122.90 494.11 120.38
  C 495.62 118.35 498.31 117.42 502.18 117.59
  C 503.51 117.65 503.96 117.05 503.53 115.80
  Z
  M 503.6258 121.3336
  C 503.22 120.22 501.49 119.84 499.7711 120.4716
  C 498.05 121.10 496.99 122.52 497.3942 123.6264
  C 497.80 124.74 499.53 125.12 501.2489 124.4884
  C 502.97 123.86 504.03 122.44 503.6258 121.3336
  Z"
/>
<path fill="#fde068" d="
  M 516.28 113.10
  C 518.40 110.15 523.64 109.77 525.30 113.31
  C 525.85 114.46 526.12 115.99 526.13 117.89
  C 526.14 120.96 526.13 124.05 526.09 127.18
  C 526.09 127.57 525.90 127.76 525.51 127.76
  L 522.54 127.73
  C 522.23 127.73 521.97 127.47 521.97 127.16
  L 521.98 116.53
  C 521.98 114.54 521.03 113.84 519.13 114.41
  C 518.92 114.48 518.73 114.57 518.55 114.68
  C 516.94 115.68 516.15 116.99 516.19 118.60
  C 516.25 121.33 516.27 124.21 516.24 127.22
  C 516.24 127.52 516.00 127.76 515.70 127.76
  L 512.68 127.75
  C 512.30 127.75 512.11 127.56 512.12 127.18
  L 512.19 111.80
  C 512.19 111.45 512.36 111.27 512.70 111.25
  L 514.76 111.11
  C 515.23 111.08 515.49 111.29 515.56 111.76
  L 515.72 112.96
  C 515.79 113.48 515.97 113.53 516.28 113.10
  Z"
/>
<path fill="#fde068" d="
  M 572.02 120.44
  C 570.88 120.44 570.56 120.95 571.06 121.98
  L 571.50 122.90
  C 572.00 123.93 573.00 124.62 574.14 124.72
  C 576.35 124.91 578.57 124.77 580.79 124.28
  C 580.96 124.24 581.12 124.37 581.12 124.55
  L 581.10 126.91
  C 581.10 127.06 581.03 127.16 580.88 127.21
  C 560.89 133.62 564.39 106.58 577.35 111.24
  C 580.62 112.41 582.16 115.23 581.99 119.69
  C 581.97 120.11 581.63 120.44 581.21 120.44
  L 572.02 120.44
  Z
  M 571.51 117.65
  L 577.39 117.61
  C 577.64 117.61 577.85 117.41 577.85 117.15
  L 577.85 117.00
  C 577.84 115.19 576.37 113.72 574.56 113.73
  L 574.30 113.73
  C 572.49 113.74 571.04 115.22 571.05 117.04
  L 571.05 117.19
  C 571.05 117.44 571.26 117.65 571.51 117.65
  Z"
/>
<path fill="#fde068" d="
  M 594.75 124.34
  C 595.66 123.62 595.40 122.17 594.30 121.81
  C 591.21 120.79 585.25 119.76 586.30 115.04
  C 587.36 110.21 594.34 110.32 598.09 111.26
  C 598.26 111.30 598.37 111.45 598.38 111.63
  L 598.46 114.27
  C 598.47 114.48 598.37 114.55 598.17 114.50
  C 593.96 113.35 591.45 113.47 590.62 114.85
  C 590.29 115.42 590.49 116.15 591.07 116.46
  C 593.41 117.70 597.87 118.32 599.10 120.62
  C 600.08 122.45 599.88 124.19 598.49 125.83
  C 595.89 128.91 589.93 128.35 586.42 127.47
  C 586.29 127.44 586.22 127.35 586.22 127.21
  L 586.09 124.16
  C 586.08 124.01 586.16 123.95 586.31 123.99
  C 590.74 125.18 593.55 125.29 594.75 124.34
  Z"
/>
<path fill="#fde068" d="
  M 627.45 120.45
  C 626.18 120.44 625.83 121.01 626.40 122.15
  L 626.75 122.86
  C 627.34 124.03 628.28 124.66 629.59 124.76
  C 631.67 124.91 633.72 124.75 635.75 124.28
  C 636.09 124.20 636.26 124.33 636.26 124.68
  L 636.27 126.81
  C 636.27 127.09 636.13 127.27 635.86 127.35
  C 630.60 128.92 624.00 128.70 622.39 122.48
  C 620.72 115.99 624.63 109.65 632.20 111.12
  C 634.31 111.53 635.69 112.75 636.35 114.79
  C 636.66 115.75 636.97 116.71 637.28 117.68
  C 637.89 119.54 637.21 120.47 635.25 120.46
  L 627.45 120.45
  Z
  M 626.75 117.61
  L 632.79 117.61
  C 633.03 117.61 633.22 117.42 633.22 117.18
  L 633.22 117.07
  C 633.22 115.24 631.73 113.75 629.89 113.75
  L 629.65 113.75
  C 627.81 113.75 626.32 115.24 626.32 117.07
  L 626.32 117.18
  C 626.32 117.42 626.51 117.61 626.75 117.61
  Z"
/>
<path fill="#fde068" d="
  M 646.24 112.97
  C 647.87 111.00 649.95 110.37 652.47 111.08
  C 655.10 111.82 655.86 114.53 656.04 116.95
  C 656.07 117.38 655.87 117.59 655.44 117.58
  L 652.56 117.55
  C 652.16 117.54 651.93 117.34 651.88 116.94
  L 651.73 115.79
  C 651.56 114.49 650.16 113.73 648.98 114.30
  C 647.35 115.09 645.98 116.50 645.99 118.41
  C 646.01 121.54 646.02 124.48 646.01 127.23
  C 646.01 127.57 645.84 127.74 645.50 127.74
  L 642.28 127.75
  C 641.97 127.76 641.81 127.60 641.81 127.28
  L 641.83 111.72
  C 641.83 111.41 642.08 111.16 642.40 111.15
  L 644.78 111.15
  C 645.14 111.15 645.45 111.42 645.48 111.78
  L 645.57 112.76
  C 645.62 113.37 645.85 113.44 646.24 112.97
  Z"
/>
<path fill="#fde068" d="
  M 688.46 126.29
  C 688.43 126.00 688.09 125.87 687.88 126.07
  C 684.35 129.39 678.04 129.04 677.63 123.14
  C 677.32 118.64 682.94 117.40 686.72 117.61
  C 687.96 117.68 688.36 117.13 687.93 115.96
  L 687.79 115.58
  C 687.33 114.33 686.43 113.71 685.10 113.74
  C 683.16 113.77 681.23 114.16 679.30 114.89
  C 678.93 115.03 678.75 114.91 678.76 114.52
  L 678.80 112.45
  C 678.81 112.08 678.99 111.83 679.34 111.70
  C 683.94 110.12 692.11 109.68 692.05 116.66
  C 692.02 120.21 692.02 123.74 692.07 127.23
  C 692.08 127.58 691.90 127.75 691.55 127.75
  L 689.18 127.76
  C 688.85 127.76 688.58 127.51 688.55 127.19
  L 688.46 126.29
  Z
  M 687.9622 121.2892
  C 687.54 120.19 685.81 119.82 684.1066 120.4708
  C 682.40 121.12 681.36 122.55 681.7778 123.6508
  C 682.20 124.75 683.93 125.12 685.6334 124.4692
  C 687.34 123.82 688.38 122.39 687.9622 121.2892
  Z"
/>
<path fill="#fde068" d="
  M 297.66 122.48
  C 297.94 123.26 298.22 123.26 298.50 122.48
  L 302.48 111.46
  C 302.55 111.27 302.69 111.17 302.89 111.17
  L 306.56 111.14
  C 306.73 111.13 306.78 111.21 306.72 111.37
  C 304.73 116.54 302.79 121.49 300.92 126.20
  C 298.97 131.10 296.03 135.24 289.97 134.48
  C 289.81 134.46 289.73 134.37 289.73 134.20
  L 289.74 131.26
  C 289.74 131.09 289.90 130.97 290.06 131.02
  C 292.53 131.71 294.35 130.78 295.54 128.22
  C 295.69 127.90 295.69 127.58 295.56 127.26
  L 289.34 111.60
  C 289.21 111.27 289.32 111.10 289.69 111.11
  L 292.96 111.17
  C 293.41 111.18 293.72 111.40 293.87 111.83
  L 297.66 122.48
  Z"
/>
<path fill="#fde068" d="
  M 555.74 122.63
  C 555.97 123.27 556.19 123.27 556.42 122.63
  L 560.48 111.46
  C 560.54 111.29 560.70 111.18 560.88 111.17
  L 564.52 111.07
  C 564.67 111.07 564.77 111.21 564.72 111.35
  C 562.39 117.65 560.17 123.20 558.07 128.01
  C 556.20 132.29 553.00 135.17 548.08 134.44
  C 547.87 134.41 547.71 134.22 547.71 134.01
  L 547.70 131.51
  C 547.70 131.24 547.95 131.05 548.21 131.11
  C 550.57 131.66 552.34 130.71 553.52 128.28
  C 553.67 127.95 553.68 127.62 553.55 127.28
  L 547.43 111.84
  C 547.24 111.36 547.40 111.12 547.92 111.12
  L 550.87 111.12
  C 551.41 111.12 551.77 111.37 551.94 111.88
  L 555.74 122.63
  Z"
/>
<path fill="#fde068" d="
  M 703.97 122.49
  L 707.73 111.90
  C 707.88 111.49 708.17 111.27 708.60 111.24
  L 711.50 111.03
  C 712.09 110.99 712.28 111.25 712.06 111.80
  C 710.15 116.70 708.19 121.60 706.20 126.49
  C 704.28 131.22 701.37 135.21 695.68 134.48
  C 695.26 134.43 695.05 134.19 695.04 133.76
  L 695.00 131.74
  C 694.99 131.27 695.22 131.07 695.69 131.13
  C 698.46 131.50 700.23 130.42 701.00 127.88
  C 701.06 127.67 701.06 127.44 700.98 127.24
  L 694.82 111.75
  C 694.66 111.34 694.80 111.14 695.23 111.14
  L 698.37 111.11
  C 698.82 111.10 699.12 111.31 699.27 111.74
  L 703.19 122.50
  C 703.45 123.22 703.71 123.22 703.97 122.49
  Z"
/>
<path fill="#fde068" d="
  M 720.10 129.76
  C 720.77 129.12 720.88 128.08 720.36 127.31
  L 719.10 125.44
  C 718.53 124.59 718.62 123.47 719.32 122.73
  C 720.30 121.69 721.37 121.42 722.52 121.91
  C 724.62 122.79 725.18 125.51 724.73 127.52
  C 723.96 131.02 721.53 132.94 717.44 133.29
  C 716.78 133.35 716.18 132.89 716.07 132.23
  L 716.00 131.84
  C 715.88 131.13 716.18 130.79 716.90 130.84
  C 718.21 130.92 719.27 130.56 720.10 129.76
  Z"
/>
<path fill="#fde068" d="
  M 387.87 159.66
  C 391.45 156.30 396.30 157.88 397.67 162.46
  C 399.23 167.69 397.57 173.85 391.56 174.84
  C 389.05 175.25 386.46 175.06 383.81 174.25
  C 383.44 174.14 383.25 173.88 383.25 173.49
  L 383.25 152.24
  C 383.25 151.90 383.42 151.73 383.76 151.73
  L 386.76 151.73
  C 387.11 151.73 387.28 151.91 387.27 152.26
  L 387.12 159.33
  C 387.11 160.03 387.36 160.14 387.87 159.66
  Z
  M 389.46 161.77
  L 387.56 163.73
  C 387.36 163.94 387.26 164.18 387.26 164.47
  L 387.24 170.24
  C 387.23 171.74 387.96 172.31 389.41 171.95
  C 390.04 171.80 390.56 171.67 390.97 171.56
  C 392.48 171.19 393.37 170.24 393.65 168.71
  C 394.13 166.08 394.43 160.22 390.11 161.39
  C 389.86 161.46 389.64 161.59 389.46 161.77
  Z"
/>
<path fill="#fde068" d="
  M 535.20 159.78
  C 536.27 158.59 537.53 157.96 538.98 157.90
  C 542.58 157.75 544.42 159.62 544.49 163.51
  C 544.56 167.44 544.58 171.07 544.57 174.42
  C 544.57 174.65 544.45 174.77 544.22 174.77
  L 541.06 174.80
  C 540.73 174.80 540.56 174.64 540.57 174.31
  L 540.60 163.63
  C 540.61 161.61 539.64 160.87 537.69 161.41
  C 537.54 161.45 537.40 161.51 537.27 161.59
  C 535.48 162.67 534.60 164.07 534.65 165.78
  C 534.73 168.58 534.75 171.37 534.72 174.16
  C 534.71 174.52 534.43 174.80 534.07 174.80
  L 531.19 174.78
  C 530.80 174.78 530.60 174.58 530.60 174.19
  L 530.69 152.21
  C 530.69 151.95 530.90 151.74 531.16 151.74
  L 534.22 151.74
  C 534.54 151.74 534.70 151.90 534.69 152.22
  L 534.57 159.53
  C 534.56 160.18 534.77 160.26 535.20 159.78
  Z"
/>
<path fill="#fde068" d="
  M 651.01 172.95
  C 650.14 173.60 649.51 174.51 648.43 174.82
  C 641.43 176.81 639.16 169.17 640.57 163.95
  C 641.81 159.41 645.18 157.47 650.68 158.13
  C 650.94 158.16 651.16 157.96 651.16 157.71
  L 651.13 152.05
  C 651.13 151.88 651.27 151.74 651.45 151.74
  L 654.82 151.73
  C 655.05 151.73 655.17 151.85 655.17 152.08
  L 655.20 174.27
  C 655.20 174.59 655.04 174.75 654.73 174.76
  L 652.23 174.84
  C 651.89 174.85 651.60 174.57 651.61 174.23
  L 651.63 173.27
  C 651.64 172.74 651.43 172.64 651.01 172.95
  Z
  M 646.8431 171.7466
  C 648.74 172.10 650.74 169.93 651.3014 166.8978
  C 651.86 163.87 650.78 161.13 648.8769 160.7734
  C 646.98 160.42 644.98 162.59 644.4186 165.6222
  C 643.86 168.65 644.94 171.39 646.8431 171.7466
  Z"
/>
<path fill="#fde068" d="
  M 224.48 161.77
  L 224.51 169.87
  C 224.51 171.14 225.61 172.14 226.88 172.02
  L 230.82 171.64
  C 230.95 171.63 231.01 171.69 231.01 171.82
  L 230.98 174.22
  C 230.97 174.42 230.88 174.54 230.69 174.59
  C 225.38 175.92 220.12 175.45 220.41 168.45
  C 220.51 166.13 220.52 163.95 220.45 161.91
  C 220.44 161.48 220.21 161.26 219.78 161.26
  L 216.69 161.25
  C 216.15 161.25 215.88 160.98 215.88 160.44
  L 215.89 158.87
  C 215.89 158.45 216.10 158.24 216.51 158.25
  L 219.74 158.26
  C 220.23 158.26 220.48 158.01 220.48 157.51
  L 220.47 154.30
  C 220.46 154.12 220.58 153.96 220.76 153.91
  L 224.18 152.93
  C 224.36 152.88 224.45 152.94 224.45 153.13
  L 224.50 157.63
  C 224.51 158.05 224.72 158.26 225.14 158.26
  L 230.48 158.25
  C 230.75 158.25 230.96 158.47 230.95 158.73
  L 230.90 160.80
  C 230.89 161.10 230.74 161.25 230.45 161.25
  L 224.99 161.26
  C 224.65 161.26 224.48 161.43 224.48 161.77
  Z"
/>
<path fill="#fde068" d="
  M 519.34 161.93
  C 519.33 164.27 519.32 166.74 519.33 169.35
  C 519.34 173.04 523.61 171.84 525.69 171.66
  C 525.92 171.64 526.03 171.74 526.02 171.96
  L 526.00 174.21
  C 525.99 174.40 525.90 174.52 525.73 174.57
  C 522.50 175.49 516.18 175.91 515.53 171.22
  C 515.11 168.18 515.33 164.97 515.36 161.89
  C 515.36 161.55 515.08 161.27 514.74 161.26
  L 511.29 161.26
  C 510.98 161.26 510.82 161.10 510.83 160.79
  L 510.85 158.70
  C 510.85 158.39 511.00 158.24 511.30 158.25
  L 514.70 158.26
  C 515.17 158.26 515.40 158.03 515.38 157.56
  L 515.29 154.65
  C 515.28 154.23 515.47 153.96 515.87 153.85
  L 518.83 152.99
  C 519.06 152.92 519.29 153.09 519.29 153.33
  L 519.31 157.66
  C 519.31 158.06 519.51 158.26 519.91 158.26
  L 525.47 158.24
  C 525.80 158.23 525.96 158.39 525.97 158.72
  L 526.01 160.75
  C 526.02 161.10 525.85 161.27 525.50 161.27
  L 520.00 161.27
  C 519.56 161.27 519.34 161.49 519.34 161.93
  Z"
/>
<path fill="#fde068" d="
  M 607.51 157.75
  L 607.50 154.29
  C 607.50 154.08 607.60 153.95 607.79 153.90
  L 611.25 152.89
  C 611.42 152.84 611.50 152.91 611.50 153.08
  L 611.52 157.77
  C 611.52 158.04 611.74 158.26 612.02 158.26
  L 617.76 158.24
  C 617.93 158.24 618.02 158.33 618.02 158.51
  L 618.03 160.99
  C 618.03 161.17 617.94 161.26 617.76 161.26
  L 612.18 161.27
  C 611.71 161.27 611.48 161.50 611.49 161.97
  C 611.54 164.36 611.54 166.70 611.49 169.01
  C 611.39 172.95 615.38 172.05 617.71 171.57
  C 617.92 171.52 618.12 171.69 618.11 171.90
  L 618.11 174.14
  C 618.11 174.43 617.97 174.60 617.69 174.65
  C 613.08 175.64 607.40 175.71 607.46 169.29
  C 607.48 166.98 607.51 164.56 607.55 162.01
  C 607.56 161.51 607.31 161.26 606.81 161.26
  L 603.50 161.26
  C 603.21 161.26 602.98 161.03 602.97 160.74
  L 602.96 158.77
  C 602.96 158.43 603.13 158.26 603.48 158.26
  L 607.00 158.25
  C 607.28 158.25 607.51 158.03 607.51 157.75
  Z"
/>
<path fill="#fde068" d="
  M 423.26 157.75
  L 423.12 154.70
  C 423.10 154.26 423.38 153.87 423.80 153.77
  L 426.60 153.07
  C 427.04 152.96 427.26 153.14 427.26 153.59
  L 427.22 157.74
  C 427.22 158.09 427.39 158.27 427.74 158.26
  L 433.09 158.22
  C 433.50 158.22 433.71 158.43 433.72 158.84
  L 433.73 160.77
  C 433.73 161.05 433.51 161.27 433.23 161.27
  L 427.74 161.27
  C 427.33 161.26 427.14 161.46 427.16 161.87
  C 427.28 164.24 427.30 166.78 427.22 169.48
  C 427.11 172.99 431.39 171.90 433.26 171.63
  C 433.58 171.58 433.74 171.72 433.74 172.04
  L 433.72 174.04
  C 433.72 174.41 433.54 174.63 433.19 174.70
  C 428.94 175.65 423.27 175.73 423.18 169.73
  C 423.14 167.08 423.14 164.48 423.18 161.93
  C 423.19 161.48 422.98 161.26 422.53 161.27
  L 419.21 161.27
  C 418.90 161.27 418.64 161.01 418.64 160.70
  L 418.66 158.78
  C 418.66 158.41 418.85 158.23 419.22 158.23
  L 422.75 158.27
  C 423.10 158.27 423.27 158.10 423.26 157.75
  Z"
/>
<path fill="#fde068" d="
  M 445.74 162.01
  L 445.76 169.87
  C 445.77 171.14 446.86 172.13 448.13 172.01
  L 452.05 171.62
  C 452.18 171.61 452.24 171.66 452.24 171.79
  L 452.25 174.26
  C 452.25 174.41 452.15 174.54 452.00 174.58
  C 447.89 175.75 441.70 175.73 441.70 169.97
  C 441.69 167.34 441.70 164.67 441.73 161.96
  C 441.74 161.48 441.50 161.24 441.01 161.24
  L 437.93 161.27
  C 437.36 161.27 437.09 160.99 437.11 160.43
  L 437.16 159.01
  C 437.18 158.48 437.46 158.22 437.99 158.23
  L 441.22 158.28
  C 441.55 158.29 441.72 158.12 441.72 157.78
  L 441.71 154.54
  C 441.71 154.17 441.88 153.94 442.23 153.84
  L 445.05 153.02
  C 445.52 152.89 445.76 153.06 445.76 153.55
  L 445.74 157.62
  C 445.73 158.05 445.94 158.26 446.37 158.26
  L 451.73 158.25
  C 452.06 158.25 452.22 158.41 452.22 158.74
  L 452.21 160.78
  C 452.20 161.05 451.99 161.26 451.72 161.26
  L 446.49 161.26
  C 445.99 161.26 445.74 161.51 445.74 162.01
  Z"
/>
<path fill="#fde068" d="
  M 241.2191 175.2165
  C 236.78 174.47 233.84 169.96 234.6541 165.1608
  C 235.47 160.36 239.72 157.07 244.1609 157.8235
  C 248.60 158.57 251.54 163.08 250.7259 167.8792
  C 249.91 172.68 245.66 175.97 241.2191 175.2165
  Z
  M 242.6831 171.8798
  C 244.88 171.90 246.67 169.51 246.6998 166.5346
  C 246.73 163.56 244.97 161.14 242.7769 161.1202
  C 240.58 161.10 238.79 163.49 238.7602 166.4654
  C 238.73 169.44 240.49 171.86 242.6831 171.8798
  Z"
/>
<path fill="#fde068" d="
  M 256.43 159.74
  C 256.63 159.23 256.94 158.85 257.35 158.58
  C 259.44 157.23 261.03 157.68 262.11 159.93
  C 262.32 160.36 262.53 160.37 262.74 159.94
  C 263.45 158.53 264.55 157.85 266.04 157.91
  C 268.35 157.99 269.30 160.25 269.28 162.24
  C 269.25 166.48 269.28 170.50 269.36 174.29
  C 269.37 174.65 269.19 174.83 268.83 174.82
  L 266.29 174.78
  C 266.02 174.77 265.80 174.56 265.80 174.29
  L 265.80 161.57
  C 265.80 161.04 265.22 160.70 264.75 160.97
  C 264.35 161.19 264.02 161.49 263.76 161.88
  C 263.12 162.79 262.79 163.75 262.78 164.78
  C 262.73 167.92 262.74 171.06 262.82 174.19
  C 262.83 174.57 262.64 174.76 262.27 174.77
  L 260.00 174.80
  C 259.63 174.81 259.44 174.62 259.44 174.25
  L 259.43 161.75
  C 259.43 161.13 258.78 160.72 258.22 160.98
  C 257.87 161.14 257.58 161.38 257.35 161.71
  C 256.66 162.70 256.30 163.75 256.29 164.86
  C 256.26 167.91 256.26 171.10 256.30 174.45
  C 256.31 174.68 256.20 174.79 255.97 174.79
  L 253.04 174.77
  C 252.89 174.77 252.81 174.69 252.81 174.54
  L 252.86 158.70
  C 252.86 158.41 253.01 158.26 253.30 158.25
  L 255.27 158.20
  C 255.60 158.19 255.74 158.35 255.71 158.68
  C 255.67 159.07 255.73 159.43 255.90 159.76
  C 256.09 160.16 256.27 160.15 256.43 159.74
  Z"
/>
<path fill="#fde068" d="
  M 277.8694 175.2275
  C 273.43 174.42 270.54 169.87 271.4117 165.0692
  C 272.28 160.27 276.59 157.03 281.0306 157.8325
  C 285.47 158.64 288.36 163.19 287.4883 167.9908
  C 286.62 172.79 282.31 176.03 277.8694 175.2275
  Z
  M 279.4144 171.8596
  C 281.61 171.89 283.41 169.50 283.4497 166.5385
  C 283.49 163.57 281.74 161.15 279.5456 161.1204
  C 277.35 161.09 275.55 163.48 275.5103 166.4415
  C 275.47 169.41 277.22 171.83 279.4144 171.8596
  Z"
/>
<path fill="#fde068" d="
  M 296.05 160.12
  C 297.77 157.98 299.94 157.35 302.56 158.24
  C 304.96 159.05 305.70 161.65 305.85 163.95
  C 305.88 164.41 305.67 164.64 305.20 164.65
  L 302.50 164.69
  C 301.94 164.70 301.67 164.43 301.70 163.86
  C 301.72 163.42 301.67 162.99 301.54 162.56
  C 301.16 161.30 299.69 160.74 298.57 161.44
  C 297.00 162.42 295.71 163.76 295.73 165.76
  C 295.76 168.81 295.80 171.69 295.84 174.42
  C 295.84 174.65 295.72 174.77 295.49 174.77
  L 292.01 174.80
  C 291.82 174.80 291.72 174.70 291.72 174.51
  L 291.73 158.77
  C 291.73 158.44 291.90 158.27 292.23 158.26
  L 294.72 158.22
  C 295.05 158.21 295.25 158.38 295.30 158.71
  L 295.49 159.97
  C 295.56 160.45 295.74 160.50 296.05 160.12
  Z"
/>
<path fill="#fde068" d="
  M 313.77 159.95
  C 313.82 160.42 313.99 160.48 314.30 160.11
  C 315.31 158.86 316.61 158.13 318.18 157.92
  C 322.14 157.37 324.13 160.34 324.21 164.09
  C 324.22 164.45 324.04 164.64 323.67 164.65
  L 320.85 164.70
  C 320.43 164.71 320.18 164.51 320.10 164.09
  L 319.80 162.50
  C 319.61 161.50 318.58 160.89 317.61 161.22
  C 315.78 161.84 314.10 163.53 314.14 165.62
  C 314.21 168.53 314.21 171.50 314.16 174.55
  C 314.16 174.69 314.09 174.76 313.95 174.76
  L 310.42 174.77
  C 310.19 174.77 310.07 174.65 310.07 174.42
  L 310.04 159.01
  C 310.04 158.54 310.27 158.30 310.74 158.28
  L 312.92 158.18
  C 313.36 158.16 313.60 158.37 313.65 158.80
  L 313.77 159.95
  Z"
/>
<path fill="#fde068" d="
  M 333.3822 175.2238
  C 328.94 174.46 326.00 169.95 326.8267 165.1451
  C 327.65 160.34 331.92 157.06 336.3578 157.8162
  C 340.80 158.58 343.74 163.09 342.9133 167.8949
  C 342.09 172.70 337.82 175.98 333.3822 175.2238
  Z
  M 334.8725 171.8599
  C 337.07 171.88 338.86 169.48 338.8799 166.5177
  C 338.90 163.55 337.14 161.14 334.9475 161.1201
  C 332.75 161.10 330.96 163.50 330.9401 166.4623
  C 330.92 169.43 332.68 171.84 334.8725 171.8599
  Z"
/>
<path fill="#fde068" d="
  M 405.23 169.04
  L 405.62 169.89
  C 406.15 171.00 407.22 171.76 408.44 171.88
  C 410.55 172.09 412.74 171.88 415.01 171.26
  C 415.12 171.23 415.18 171.27 415.19 171.39
  L 415.22 174.03
  C 415.23 174.22 415.14 174.33 414.96 174.38
  C 410.72 175.47 404.13 176.14 401.92 171.21
  C 399.27 165.31 402.59 156.34 410.47 158.03
  C 414.50 158.89 416.39 161.83 416.14 166.84
  C 416.12 167.28 415.89 167.50 415.45 167.50
  L 406.21 167.49
  C 405.07 167.49 404.74 168.01 405.23 169.04
  Z
  M 405.59 164.77
  L 411.69 164.67
  C 411.94 164.67 412.14 164.46 412.13 164.21
  L 412.13 164.07
  C 412.10 162.21 410.57 160.73 408.72 160.76
  L 408.44 160.76
  C 406.58 160.79 405.10 162.32 405.13 164.18
  L 405.13 164.32
  C 405.14 164.57 405.34 164.77 405.59 164.77
  Z"
/>
<path fill="#fde068" d="
  M 461.75 167.49
  C 460.30 167.48 459.93 168.11 460.63 169.38
  L 460.88 169.85
  C 461.67 171.27 462.87 171.99 464.50 172.00
  C 466.46 172.01 468.29 171.76 469.98 171.25
  C 470.27 171.16 470.42 171.27 470.43 171.58
  L 470.51 173.91
  C 470.52 174.26 470.36 174.46 470.02 174.52
  C 465.32 175.38 458.64 176.19 456.76 170.21
  C 454.84 164.12 458.68 156.03 466.25 158.16
  C 470.05 159.23 471.72 162.17 471.27 167.00
  C 471.24 167.34 471.05 167.51 470.71 167.51
  L 461.75 167.49
  Z
  M 460.99 164.73
  L 466.89 164.73
  C 467.16 164.73 467.37 164.52 467.37 164.25
  L 467.37 164.08
  C 467.37 162.24 465.90 160.75 464.08 160.75
  L 463.80 160.75
  C 461.98 160.75 460.51 162.24 460.51 164.08
  L 460.51 164.25
  C 460.51 164.52 460.72 164.73 460.99 164.73
  Z"
/>
<path fill="#fde068" d="
  M 480.25 160.14
  C 480.98 159.03 481.92 158.35 483.08 158.11
  C 487.28 157.24 489.59 159.15 490.02 163.83
  C 490.07 164.40 489.81 164.69 489.23 164.68
  L 486.73 164.64
  C 486.08 164.63 485.78 164.31 485.83 163.66
  C 485.88 162.87 485.70 162.20 485.29 161.67
  C 484.97 161.26 484.45 161.07 483.94 161.18
  C 481.46 161.71 480.17 163.13 480.07 165.43
  C 479.96 168.07 479.98 171.01 480.14 174.26
  C 480.16 174.57 480.01 174.73 479.70 174.74
  L 476.34 174.81
  C 476.08 174.82 475.87 174.61 475.87 174.35
  L 475.87 158.99
  C 475.87 158.38 476.17 158.12 476.77 158.21
  C 477.43 158.31 478.08 158.29 478.71 158.14
  C 479.26 158.01 479.52 158.23 479.48 158.80
  C 479.45 159.27 479.53 159.70 479.72 160.10
  C 479.88 160.43 480.06 160.44 480.25 160.14
  Z"
/>
<path fill="#fde068" d="
  M 558.71 173.16
  C 555.28 176.82 548.49 175.78 548.61 169.65
  C 548.70 165.56 554.15 164.43 557.59 164.66
  C 558.78 164.74 559.20 164.21 558.85 163.06
  L 558.76 162.74
  C 558.35 161.42 557.46 160.77 556.08 160.78
  C 554.11 160.79 552.12 161.18 550.10 161.94
  C 549.92 162.01 549.83 161.95 549.83 161.76
  L 549.77 159.48
  C 549.76 159.17 549.91 158.96 550.20 158.86
  C 554.63 157.27 562.87 156.65 562.88 163.57
  C 562.89 167.03 562.93 170.52 563.02 174.04
  C 563.03 174.59 562.77 174.87 562.22 174.87
  L 560.25 174.87
  C 559.68 174.87 559.43 174.59 559.48 174.02
  C 559.50 173.77 559.47 173.53 559.39 173.30
  C 559.24 172.88 559.02 172.83 558.71 173.16
  Z
  M 556.11 171.91
  C 556.47 171.88 556.80 171.73 557.05 171.48
  L 558.57 170.01
  C 559.63 168.99 558.80 167.21 557.33 167.36
  L 554.29 167.67
  C 553.63 167.73 553.08 168.22 552.94 168.87
  L 552.64 170.19
  C 552.41 171.21 553.25 172.16 554.29 172.07
  L 556.11 171.91
  Z"
/>
<path fill="#fde068" d="
  M 571.53 160.12
  C 573.91 157.38 578.83 156.70 580.59 160.43
  C 581.11 161.52 581.35 162.79 581.32 164.25
  C 581.23 167.79 581.22 171.14 581.29 174.29
  C 581.30 174.62 581.13 174.79 580.80 174.79
  L 577.81 174.77
  C 577.56 174.77 577.35 174.56 577.36 174.31
  L 577.38 163.58
  C 577.38 161.47 576.38 160.74 574.37 161.40
  C 574.24 161.45 574.11 161.51 573.99 161.59
  C 572.21 162.74 571.33 164.14 571.35 165.80
  C 571.38 168.53 571.39 171.41 571.37 174.45
  C 571.36 174.69 571.24 174.81 571.01 174.81
  L 567.85 174.80
  C 567.65 174.80 567.48 174.63 567.48 174.42
  L 567.48 158.97
  C 567.48 158.40 567.76 158.14 568.33 158.20
  C 568.92 158.27 569.48 158.24 570.02 158.12
  C 570.51 158.01 570.96 158.42 570.89 158.92
  C 570.84 159.29 570.86 159.64 570.95 159.99
  C 571.06 160.40 571.25 160.44 571.53 160.12
  Z"
/>
<path fill="#fde068" d="
  M 628.0733 175.1933
  C 623.64 174.40 620.73 169.87 621.5865 165.0790
  C 622.44 160.28 626.73 157.04 631.1667 157.8267
  C 635.60 158.62 638.51 163.15 637.6535 167.9410
  C 636.80 172.74 632.51 175.98 628.0733 175.1933
  Z
  M 629.6031 171.8798
  C 631.78 171.90 633.57 169.51 633.5998 166.5345
  C 633.63 163.56 631.88 161.14 629.6969 161.1202
  C 627.52 161.10 625.73 163.49 625.7002 166.4655
  C 625.67 169.44 627.42 171.86 629.6031 171.8798
  Z"
/>
<path fill="#fde068" d="
  M 669.26 173.11
  C 667.47 174.84 665.34 175.48 662.87 175.01
  C 658.49 174.18 657.83 168.05 661.51 165.97
  C 663.79 164.69 666.19 164.58 668.76 164.69
  C 669.17 164.71 669.41 164.52 669.48 164.11
  C 670.34 159.12 663.15 161.07 660.83 161.94
  C 660.61 162.02 660.37 161.86 660.37 161.62
  L 660.38 159.47
  C 660.39 159.12 660.56 158.89 660.89 158.78
  C 664.83 157.47 673.48 156.58 673.39 163.13
  C 673.34 166.90 673.37 170.56 673.48 174.09
  C 673.49 174.56 673.27 174.79 672.80 174.79
  L 670.55 174.80
  C 670.26 174.80 670.02 174.59 669.98 174.30
  L 669.85 173.31
  C 669.78 172.86 669.59 172.79 669.26 173.11
  Z
  M 669.4896 168.3549
  C 669.06 167.23 667.31 166.85 665.5823 167.5134
  C 663.85 168.17 662.80 169.62 663.2304 170.7451
  C 663.66 171.87 665.41 172.25 667.1377 171.5866
  C 668.87 170.93 669.92 169.48 669.4896 168.3549
  Z"
/>
<path fill="#fde068" d="
  M 685.40 169.93
  L 689.61 158.40
  C 689.64 158.31 689.71 158.26 689.80 158.26
  L 693.62 158.25
  C 693.72 158.25 693.75 158.30 693.72 158.39
  C 691.02 166.18 688.51 172.32 686.19 176.81
  C 684.44 180.19 681.57 181.79 677.58 181.62
  C 677.03 181.59 676.76 181.31 676.76 180.77
  L 676.74 178.71
  C 676.74 178.26 676.96 178.08 677.40 178.19
  C 679.70 178.76 681.42 177.80 682.56 175.33
  C 682.73 174.97 682.74 174.61 682.59 174.24
  C 680.45 168.91 678.37 163.64 676.34 158.43
  C 676.28 158.29 676.40 158.13 676.55 158.14
  L 680.52 158.29
  C 680.66 158.30 680.75 158.37 680.80 158.50
  L 684.92 169.93
  C 685.00 170.16 685.32 170.16 685.40 169.93
  Z"
/>
<path fill="#fde068" d="
  M 358.99 158.25
  L 361.87 158.26
  C 362.08 158.26 362.23 158.44 362.21 158.65
  L 360.02 174.45
  C 360.00 174.62 359.86 174.74 359.69 174.75
  L 355.73 174.82
  C 355.58 174.83 355.45 174.73 355.40 174.59
  L 353.52 168.77
  C 353.42 168.45 352.97 168.46 352.87 168.78
  L 351.12 174.52
  C 351.08 174.66 350.95 174.75 350.80 174.76
  L 346.83 174.85
  C 346.66 174.86 346.51 174.73 346.49 174.56
  L 344.24 158.61
  C 344.21 158.41 344.37 158.22 344.58 158.23
  L 347.79 158.27
  C 347.96 158.27 348.11 158.39 348.13 158.56
  L 349.40 168.39
  C 349.44 168.75 349.95 168.79 350.06 168.44
  L 351.72 162.98
  C 351.76 162.83 351.90 162.73 352.05 162.74
  L 354.61 162.79
  C 354.75 162.79 354.88 162.88 354.93 163.02
  L 356.89 168.92
  C 357.01 169.27 357.52 169.22 357.56 168.85
  L 358.65 158.55
  C 358.67 158.38 358.81 158.25 358.99 158.25
  Z"
/>
<path fill="#fde068" d="
  M 706.52 172.00
  C 706.52 173.75 705.11 175.16 703.36 175.16
  C 701.61 175.16 700.20 173.75 700.20 172.00
  C 700.20 170.25 701.61 168.84 703.36 168.84
  C 705.11 168.84 706.52 170.25 706.52 172.00
  Z"
/>
<path fill="#fefefe" d="
  M 163.78 226.22
  C 171.96 218.65 171.84 207.49 163.60 200.04
  C 163.51 199.95 163.50 199.87 163.59 199.78
  L 165.67 197.70
  C 165.74 197.63 165.81 197.62 165.88 197.69
  C 176.29 206.29 176.24 219.99 165.92 228.48
  C 165.80 228.58 165.68 228.58 165.57 228.47
  L 163.77 226.68
  C 163.61 226.52 163.61 226.37 163.78 226.22
  Z"
/>
<path fill="#fde068" d="
  M 145.56 206.50
  L 145.13 199.23
  C 145.11 198.97 145.32 198.75 145.58 198.75
  L 148.78 198.75
  C 149.03 198.75 149.24 198.96 149.23 199.22
  L 148.88 206.48
  C 148.87 206.71 148.67 206.90 148.43 206.90
  L 146.02 206.93
  C 145.78 206.93 145.58 206.74 145.56 206.50
  Z"
/>
<path fill="#fde068" d="
  M 152.10 206.58
  L 151.79 199.18
  C 151.78 198.94 151.96 198.75 152.20 198.75
  L 155.59 198.75
  C 155.82 198.75 156.01 198.95 156.00 199.18
  L 155.58 206.64
  C 155.57 206.86 155.38 207.04 155.16 207.03
  L 152.50 206.97
  C 152.29 206.96 152.11 206.79 152.10 206.58
  Z"
/>
<path fill="#fefefe" d="
  M 190.35 208.05
  C 190.35 209.66 189.04 210.97 187.43 210.97
  C 185.82 210.97 184.51 209.66 184.51 208.05
  C 184.51 206.44 185.82 205.13 187.43 205.13
  C 189.04 205.13 190.35 206.44 190.35 208.05
  Z"
/>
<path fill="#fefefe" d="
  M 186.50 222.28
  C 186.38 221.45 185.93 220.68 185.16 219.95
  C 184.88 219.69 184.72 219.37 184.68 219.00
  C 184.19 214.76 190.04 214.86 190.51 218.82
  C 191.13 224.05 188.51 226.97 182.66 227.57
  C 182.15 227.62 181.89 227.40 181.88 226.89
  L 181.85 225.96
  C 181.84 225.48 182.07 225.20 182.54 225.11
  L 184.78 224.68
  C 185.90 224.47 186.66 223.41 186.50 222.28
  Z"
/>
<path fill="#0e8ea7" fill-opacity="0.980" d="
  M 22.38 258.63
  C 17.77 256.10 23.37 246.77 16.30 247.54
  C 16.05 247.57 15.92 247.46 15.90 247.21
  L 15.73 244.78
  C 15.72 244.63 15.78 244.56 15.93 244.55
  C 20.06 244.23 23.56 245.88 23.83 250.01
  C 23.98 252.26 23.01 257.93 27.20 257.30
  C 27.54 257.25 27.87 257.47 27.94 257.81
  C 28.11 258.60 28.13 259.37 27.99 260.12
  C 27.92 260.45 27.73 260.59 27.40 260.53
  C 22.97 259.79 23.97 264.98 23.97 267.37
  C 23.97 272.49 21.96 275.15 16.02 274.68
  C 15.93 274.67 15.88 274.63 15.87 274.55
  C 15.64 273.48 15.68 272.59 16.01 271.90
  C 16.04 271.83 16.10 271.81 16.17 271.82
  C 23.27 272.74 17.56 262.27 22.39 259.32
  C 22.78 259.08 22.78 258.85 22.38 258.63
  Z"
/>
<path fill="#fefefe" d="
  M 137.38 293.47
  C 129.04 300.62 129.20 312.37 137.35 319.64
  C 137.49 319.76 137.49 319.98 137.35 320.10
  L 135.42 321.91
  C 135.27 322.04 135.13 322.05 134.98 321.92
  C 124.62 313.15 124.78 300.49 134.92 291.33
  C 134.99 291.27 135.06 291.26 135.14 291.30
  C 135.86 291.68 136.61 292.28 137.40 293.09
  C 137.53 293.22 137.52 293.35 137.38 293.47
  Z"
/>
<path fill="#fefefe" d="
  M 145.45 319.62
  C 153.81 312.20 153.28 301.34 145.29 293.51
  C 145.24 293.46 145.23 293.40 145.27 293.33
  C 145.81 292.46 146.53 291.76 147.43 291.23
  C 147.46 291.21 147.50 291.21 147.53 291.24
  C 157.84 299.87 158.01 313.49 147.62 321.88
  C 147.43 322.04 147.24 322.03 147.06 321.86
  L 145.44 320.34
  C 145.18 320.09 145.18 319.85 145.45 319.62
  Z"
/>
<path fill="#84d660" d="
  M 61.25 294.26
  C 61.25 295.72 60.06 296.91 58.60 296.91
  C 57.14 296.91 55.95 295.72 55.95 294.26
  C 55.95 292.80 57.14 291.61 58.60 291.61
  C 60.06 291.61 61.25 292.80 61.25 294.26
  Z"
/>
<path fill="#84d660" d="
  M 19.15 302.85
  L 24.71 294.16
  C 24.77 294.06 24.88 294.00 25.00 294.01
  L 29.10 294.12
  C 29.38 294.13 29.53 294.44 29.37 294.66
  L 22.51 304.02
  C 22.43 304.13 22.42 304.29 22.50 304.41
  L 29.43 314.73
  C 29.58 314.95 29.42 315.25 29.15 315.26
  L 24.96 315.30
  C 24.84 315.30 24.73 315.24 24.67 315.14
  L 19.22 306.25
  C 19.04 305.96 18.59 306.09 18.59 306.43
  L 18.49 314.94
  C 18.49 315.12 18.34 315.27 18.16 315.27
  L 14.74 315.30
  C 14.55 315.30 14.40 315.15 14.40 314.96
  L 14.39 294.34
  C 14.39 294.15 14.54 294.00 14.73 294.00
  L 18.13 293.98
  C 18.32 293.98 18.47 294.13 18.47 294.32
  L 18.52 302.67
  C 18.53 303.01 18.97 303.14 19.15 302.85
  Z"
/>
<path fill="#84d660" d="
  M 92.96 308.22
  C 91.82 308.21 91.47 308.74 91.92 309.79
  L 92.15 310.32
  C 92.71 311.63 93.97 312.51 95.39 312.56
  C 97.42 312.64 99.31 312.46 101.06 312.03
  C 101.50 311.92 101.93 312.27 101.92 312.73
  L 101.86 314.26
  C 101.84 314.81 101.56 315.13 101.03 315.22
  C 98.76 315.64 96.63 315.77 94.62 315.62
  C 83.14 314.73 86.90 295.24 97.93 298.75
  C 101.43 299.86 103.03 302.77 102.74 307.46
  C 102.71 307.98 102.43 308.24 101.90 308.24
  L 92.96 308.22
  Z
  M 92.34 305.47
  L 98.26 305.37
  C 98.55 305.36 98.78 305.12 98.78 304.83
  L 98.77 304.64
  C 98.74 302.75 97.21 301.25 95.35 301.28
  L 95.09 301.28
  C 93.24 301.31 91.76 302.87 91.79 304.76
  L 91.80 304.95
  C 91.80 305.24 92.04 305.48 92.34 305.47
  Z"
/>
<path fill="#84d660" d="
  M 42.63 313.91
  C 39.67 316.35 34.09 316.81 32.71 312.28
  C 30.90 306.36 37.66 305.43 41.59 305.38
  C 42.79 305.37 43.21 304.79 42.86 303.64
  L 42.75 303.27
  C 42.41 302.17 41.43 301.40 40.28 301.35
  C 38.15 301.24 36.17 301.65 34.34 302.56
  C 33.94 302.76 33.74 302.63 33.74 302.18
  L 33.74 300.22
  C 33.75 299.77 33.96 299.47 34.39 299.32
  C 38.52 297.92 46.57 297.21 46.73 303.61
  C 46.82 306.88 46.83 310.61 46.77 314.80
  C 46.76 315.19 46.56 315.39 46.17 315.38
  L 44.37 315.36
  C 43.88 315.35 43.57 315.11 43.45 314.62
  L 43.34 314.15
  C 43.23 313.69 42.99 313.61 42.63 313.91
  Z
  M 42.9256 308.9594
  C 42.49 307.85 40.72 307.51 38.9755 308.1982
  C 37.23 308.88 36.16 310.34 36.5944 311.4406
  C 37.03 312.55 38.80 312.89 40.5445 312.2018
  C 42.29 311.52 43.36 310.06 42.9256 308.9594
  Z"
/>
<path fill="#84d660" d="
  M 111.06 300.62
  C 113.10 297.88 117.42 297.62 119.44 300.43
  C 120.20 301.49 120.57 302.99 120.54 304.94
  C 120.48 308.32 120.47 311.60 120.52 314.78
  C 120.53 315.09 120.37 315.24 120.06 315.25
  L 116.91 315.31
  C 116.64 315.31 116.50 315.18 116.50 314.91
  L 116.59 304.13
  C 116.61 302.14 115.66 301.43 113.75 302.00
  C 113.46 302.09 113.18 302.24 112.91 302.44
  C 111.43 303.57 110.69 305.06 110.69 306.92
  L 110.68 314.73
  C 110.67 315.16 110.45 315.38 110.02 315.38
  L 107.25 315.38
  C 106.83 315.38 106.62 315.17 106.62 314.75
  L 106.67 299.54
  C 106.67 299.01 106.93 298.75 107.46 298.75
  L 109.03 298.75
  C 109.57 298.76 110.03 299.13 110.15 299.65
  L 110.32 300.46
  C 110.45 301.05 110.70 301.11 111.06 300.62
  Z"
/>
<path fill="#84d660" d="
  M 56.26 301.73
  L 52.50 301.83
  C 52.23 301.83 52.01 301.62 52.01 301.35
  L 52.00 299.48
  C 52.00 299.21 52.21 299.00 52.48 299.00
  L 60.36 298.92
  C 60.63 298.92 60.85 299.14 60.85 299.41
  L 60.72 311.80
  C 60.72 312.07 60.94 312.29 61.21 312.29
  L 65.16 312.24
  C 65.43 312.24 65.65 312.46 65.65 312.73
  L 65.62 314.83
  C 65.62 315.09 65.41 315.30 65.15 315.30
  L 51.94 315.32
  C 51.67 315.32 51.45 315.10 51.46 314.83
  L 51.49 312.67
  C 51.50 312.40 51.72 312.19 51.99 312.20
  L 56.25 312.39
  C 56.52 312.40 56.75 312.18 56.75 311.91
  L 56.75 302.21
  C 56.75 301.94 56.53 301.73 56.26 301.73
  Z"
/>
<path fill="#84d660" d="
  M 77.05 302.03
  L 71.00 302.24
  C 70.49 302.25 70.24 302.01 70.23 301.50
  L 70.21 299.43
  C 70.20 299.02 70.41 298.81 70.82 298.81
  L 82.73 298.75
  C 83.06 298.75 83.27 298.91 83.34 299.24
  C 83.62 300.49 83.38 301.60 82.61 302.55
  C 80.30 305.46 78.03 308.36 75.80 311.24
  C 75.53 311.59 75.79 312.10 76.23 312.08
  L 82.60 311.79
  C 83.17 311.77 83.45 312.04 83.46 312.60
  L 83.50 314.76
  C 83.50 315.05 83.27 315.28 82.98 315.29
  L 70.55 315.35
  C 70.21 315.36 70.00 315.19 69.92 314.86
  C 69.67 313.73 69.90 312.73 70.60 311.84
  C 72.83 308.99 75.15 306.06 77.56 303.04
  C 77.89 302.62 77.58 302.01 77.05 302.03
  Z"
/>
<path fill="#fefefe" d="
  M 171.82 301.57
  C 171.82 303.17 170.52 304.47 168.92 304.47
  C 167.32 304.47 166.02 303.17 166.02 301.57
  C 166.02 299.97 167.32 298.67 168.92 298.67
  C 170.52 298.67 171.82 299.97 171.82 301.57
  Z"
/>
<path fill="#fefefe" d="
  M 166.65 318.04
  C 167.84 317.53 168.34 316.12 167.73 314.97
  C 167.48 314.50 167.18 314.07 166.83 313.66
  C 165.46 312.07 166.55 309.21 168.76 309.38
  C 170.69 309.52 171.79 310.62 172.08 312.67
  C 172.81 317.92 168.97 320.63 164.22 321.04
  C 163.65 321.09 163.37 320.83 163.37 320.26
  L 163.37 319.25
  C 163.37 318.88 163.68 318.57 164.05 318.58
  C 164.91 318.59 165.78 318.41 166.65 318.04
  Z"
/>
</g>
</svg>
