<?xml version="1.0" encoding="UTF-8" standalone="no"?>
<svg xmlns="http://www.w3.org/2000/svg" version="1.2" baseProfile="tiny" viewBox="0.00 0.00 100.00 100.00" width="100.00" height="100.00">
<g>
<path fill="#e9e6e3" d="
  M 35.4012 28.0075
  C 35.43 32.04 32.18 35.33 28.1524 35.3582
  L 21.9925 35.4012
  C 17.96 35.43 14.67 32.18 14.6418 28.1524
  L 14.5988 21.9925
  C 14.57 17.96 17.82 14.67 21.8476 14.6418
  L 28.0075 14.5988
  C 32.04 14.57 35.33 17.82 35.3582 21.8476
  L 35.4012 28.0075
  Z
  M 29.22 21.95
  C 29.22 21.30 28.69 20.77 28.04 20.77
  L 21.96 20.77
  C 21.31 20.77 20.78 21.30 20.78 21.95
  L 20.78 28.05
  C 20.78 28.70 21.31 29.23 21.96 29.23
  L 28.04 29.23
  C 28.69 29.23 29.22 28.70 29.22 28.05
  L 29.22 21.95
  Z"
/>
<path fill="#e9e6e3" d="
  M 85.3637 28.1343
  C 85.34 32.17 82.06 35.42 78.0256 35.3960
  L 71.8657 35.3637
  C 67.83 35.34 64.58 32.06 64.6040 28.0256
  L 64.6363 21.8657
  C 64.66 17.83 67.94 14.58 71.9744 14.6040
  L 78.1343 14.6363
  C 82.17 14.66 85.42 17.94 85.3960 21.9744
  L 85.3637 28.1343
  Z
  M 79.22 21.95
  C 79.22 21.30 78.69 20.77 78.04 20.77
  L 71.96 20.77
  C 71.31 20.77 70.78 21.30 70.78 21.95
  L 70.78 28.05
  C 70.78 28.70 71.31 29.23 71.96 29.23
  L 78.04 29.23
  C 78.69 29.23 79.22 28.70 79.22 28.05
  L 79.22 21.95
  Z"
/>
<path fill="#e9e6e3" d="
  M 46.54 29.41
  L 53.25 29.46
  C 53.73 29.46 54.01 29.22 54.10 28.75
  L 54.29 27.71
  C 54.49 26.63 55.27 25.76 56.31 25.44
  C 62.75 23.45 61.31 36.20 52.15 35.57
  C 49.55 35.39 46.52 36.01 44.14 34.99
  C 41.33 33.78 39.85 31.68 39.72 28.71
  C 39.48 23.64 38.53 16.93 45.01 15.09
  C 48.72 14.03 51.99 17.53 48.75 20.37
  C 48.44 20.64 48.07 20.82 47.66 20.90
  L 46.46 21.12
  C 46.06 21.19 45.77 21.54 45.77 21.95
  L 45.80 28.67
  C 45.80 29.16 46.05 29.41 46.54 29.41
  Z"
/>
<path fill="#e9e6e3" d="
  M 28.08 45.56
  L 22.11 45.53
  C 20.25 45.52 19.15 44.59 18.82 42.76
  C 18.76 42.41 18.78 42.07 18.89 41.74
  C 19.31 40.39 20.22 39.66 21.63 39.56
  C 25.52 39.27 28.23 39.27 29.75 39.56
  C 31.73 39.93 33.33 41.22 34.56 43.45
  C 35.84 45.77 35.44 50.11 35.31 52.85
  C 34.93 60.55 28.25 60.52 22.17 60.19
  C 18.87 60.01 16.58 58.60 15.31 55.97
  C 12.14 49.42 20.61 47.59 20.84 53.14
  C 20.86 53.61 21.25 53.98 21.72 53.98
  L 28.24 53.98
  C 28.89 53.98 29.22 53.65 29.22 53.00
  L 29.23 46.71
  C 29.23 45.94 28.85 45.56 28.08 45.56
  Z"
/>
<path fill="#e9e6e3" d="
  M 60.3959 53.0156
  C 60.42 57.05 57.16 60.34 53.1243 60.3638
  L 46.9844 60.3959
  C 42.95 60.42 39.66 57.16 39.6362 53.1243
  L 39.6041 46.9844
  C 39.58 42.95 42.84 39.66 46.8757 39.6362
  L 53.0156 39.6041
  C 57.05 39.58 60.34 42.84 60.3638 46.8757
  L 60.3959 53.0156
  Z
  M 54.22 46.93
  C 54.22 46.31 53.72 45.81 53.10 45.81
  L 46.90 45.81
  C 46.28 45.81 45.78 46.31 45.78 46.93
  L 45.78 53.11
  C 45.78 53.73 46.28 54.23 46.90 54.23
  L 53.10 54.23
  C 53.72 54.23 54.22 53.73 54.22 53.11
  L 54.22 46.93
  Z"
/>
<path fill="#e9e6e3" d="
  M 85.38 52.90
  C 85.38 56.92 82.13 60.17 78.11 60.17
  L 71.89 60.17
  C 67.87 60.17 64.62 56.92 64.62 52.90
  L 64.62 46.72
  C 64.62 42.70 67.87 39.45 71.89 39.45
  L 78.11 39.45
  C 82.13 39.45 85.38 42.70 85.38 46.72
  L 85.38 52.90
  Z
  M 79.22 46.68
  C 79.22 46.06 78.72 45.56 78.10 45.56
  L 71.90 45.56
  C 71.28 45.56 70.78 46.06 70.78 46.68
  L 70.78 52.86
  C 70.78 53.48 71.28 53.98 71.90 53.98
  L 78.10 53.98
  C 78.72 53.98 79.22 53.48 79.22 52.86
  L 79.22 46.68
  Z"
/>
<path fill="#e9e6e3" d="
  M 35.3637 78.1343
  C 35.34 82.17 32.06 85.42 28.0256 85.3960
  L 21.8657 85.3637
  C 17.83 85.34 14.58 82.06 14.6040 78.0256
  L 14.6363 71.8657
  C 14.66 67.83 17.94 64.58 21.9744 64.6040
  L 28.1343 64.6363
  C 32.17 64.66 35.42 67.94 35.3960 71.9744
  L 35.3637 78.1343
  Z
  M 29.22 71.93
  C 29.22 71.31 28.72 70.81 28.10 70.81
  L 21.90 70.81
  C 21.28 70.81 20.78 71.31 20.78 71.93
  L 20.78 78.11
  C 20.78 78.73 21.28 79.23 21.90 79.23
  L 28.10 79.23
  C 28.72 79.23 29.22 78.73 29.22 78.11
  L 29.22 71.93
  Z"
/>
<path fill="#e9e6e3" d="
  M 78.24 79.23
  C 78.89 79.23 79.21 78.91 79.21 78.26
  L 79.23 72.03
  C 79.23 71.37 78.69 70.83 78.03 70.83
  L 72.29 70.79
  C 70.33 70.78 69.16 69.81 68.78 67.88
  C 68.72 67.59 68.75 67.31 68.86 67.02
  C 69.49 65.41 70.68 64.61 72.41 64.63
  C 75.58 64.68 79.28 64.05 82.03 65.81
  C 86.21 68.47 85.57 73.86 85.34 78.11
  C 85.15 81.58 83.54 83.84 80.50 84.89
  C 78.09 85.73 74.89 85.38 72.31 85.35
  C 68.48 85.30 66.01 83.48 64.90 79.89
  C 63.88 76.58 66.94 73.67 69.77 76.05
  C 70.59 76.74 70.68 77.60 70.92 78.56
  C 71.02 78.96 71.38 79.24 71.80 79.24
  L 78.24 79.23
  Z"
/>
<path fill="#e9e6e3" d="
  M 60.38 78.28
  C 60.38 82.30 57.13 85.55 53.11 85.55
  L 46.89 85.55
  C 42.87 85.55 39.62 82.30 39.62 78.28
  L 39.62 72.10
  C 39.62 68.08 42.87 64.83 46.89 64.83
  L 53.11 64.83
  C 57.13 64.83 60.38 68.08 60.38 72.10
  L 60.38 78.28
  Z
  M 54.22 72.14
  C 54.22 71.52 53.72 71.02 53.10 71.02
  L 46.90 71.02
  C 46.28 71.02 45.78 71.52 45.78 72.14
  L 45.78 78.32
  C 45.78 78.94 46.28 79.44 46.90 79.44
  L 53.10 79.44
  C 53.72 79.44 54.22 78.94 54.22 78.32
  L 54.22 72.14
  Z"
/>
</g>
</svg>
