<?xml version="1.0" encoding="UTF-8" standalone="no"?>
<svg xmlns="http://www.w3.org/2000/svg" version="1.2" baseProfile="tiny" viewBox="0.00 0.00 100.00 100.00" width="100.00" height="100.00">
<path fill="#000000" d="
  M 68.27 0.00
  L 73.69 0.00
  C 81.10 0.63 87.42 3.40 92.67 8.31
  C 95.92 11.36 97.52 15.20 97.46 19.85
  C 97.29 32.44 92.05 45.98 85.74 56.87
  C 85.53 57.23 85.64 57.40 86.05 57.39
  C 87.57 57.36 89.08 57.15 90.59 56.74
  C 94.05 55.80 97.46 57.38 97.80 61.15
  C 98.18 65.43 92.90 68.79 89.42 70.18
  C 86.07 71.51 82.49 72.06 78.66 71.83
  C 78.26 71.81 77.91 72.12 77.88 72.52
  C 77.32 82.36 77.16 94.92 65.74 98.70
  C 64.17 99.22 62.55 99.65 60.89 100.00
  L 57.70 100.00
  C 46.48 98.19 46.27 84.34 46.26 75.26
  C 46.26 74.73 46.02 74.56 45.53 74.76
  C 40.21 76.96 33.90 75.92 29.80 72.68
  C 29.51 72.45 29.21 72.44 28.90 72.66
  C 23.22 76.73 17.69 73.43 14.43 68.38
  C 10.07 61.62 7.56 53.33 5.54 45.49
  C 2.96 35.47 -0.01 23.55 4.19 13.54
  C 10.15 -0.66 26.50 -0.35 39.23 4.00
  C 39.63 4.13 40.06 4.10 40.42 3.90
  C 45.23 1.31 50.74 0.50 56.95 1.48
  C 58.28 1.69 59.65 1.63 61.08 1.29
  C 63.45 0.73 65.85 0.30 68.27 0.00
  Z
  M 48.49 70.43
  C 48.34 76.08 48.54 81.52 49.07 86.75
  C 50.15 97.38 59.39 99.61 67.77 95.24
  C 70.89 93.61 72.86 90.35 73.45 86.95
  C 74.47 81.02 75.26 75.02 75.82 68.94
  C 75.84 68.73 76.03 68.58 76.24 68.62
  C 82.47 69.63 90.60 68.17 94.43 63.04
  C 96.23 60.65 93.94 58.70 91.47 59.30
  C 88.30 60.08 85.07 60.25 81.77 59.80
  C 81.25 59.73 80.97 59.15 81.25 58.71
  C 87.70 48.45 91.95 37.73 94.02 26.56
  C 94.78 22.45 95.32 16.16 92.65 12.67
  C 85.15 2.84 72.54 0.92 60.82 4.18
  C 59.69 4.49 58.60 4.55 57.53 4.35
  C 51.52 3.24 45.83 3.64 40.73 6.80
  C 40.40 7.01 40.06 7.04 39.70 6.90
  C 29.34 2.98 14.10 1.41 7.72 12.27
  C 4.47 17.80 4.27 25.42 5.38 31.87
  C 6.45 38.10 15.50 84.81 29.45 68.08
  C 31.78 65.29 34.06 62.66 36.28 60.20
  C 36.57 59.88 36.90 59.82 37.29 60.01
  C 38.56 60.66 39.97 61.03 41.51 61.14
  C 41.98 61.17 42.09 61.39 41.84 61.79
  C 39.51 65.44 36.15 65.08 32.70 66.46
  C 30.13 67.48 30.71 70.45 32.78 71.40
  C 38.27 73.90 43.28 73.46 47.83 70.09
  C 48.28 69.76 48.50 69.87 48.49 70.43
  Z"
/>
<g>
<path fill="#32648d" d="
  M 78.88 55.89
  C 80.61 52.77 81.32 49.72 81.03 46.75
  C 80.84 44.79 80.64 42.73 80.43 40.57
  C 79.90 35.01 82.51 29.02 80.24 23.80
  C 77.23 16.89 72.86 11.65 67.13 8.07
  C 66.30 7.55 65.37 7.20 64.54 6.70
  C 64.10 6.43 64.13 6.25 64.63 6.15
  C 74.19 4.22 84.20 6.32 90.31 14.19
  C 92.95 17.59 91.60 25.39 90.67 29.30
  C 88.40 38.81 84.66 47.83 79.43 56.37
  C 79.36 56.48 79.28 56.49 79.19 56.42
  L 78.95 56.24
  C 78.82 56.15 78.80 56.03 78.88 55.89
  Z"
/>
<path fill="#32648d" d="
  M 45.34 58.70
  C 46.05 56.40 46.90 54.08 47.91 51.74
  C 50.49 45.71 50.29 39.52 48.98 32.91
  C 47.33 24.56 39.09 25.70 33.43 28.66
  C 33.00 28.89 32.81 28.76 32.86 28.28
  C 33.92 17.39 38.83 6.88 51.18 6.59
  C 63.67 6.31 73.08 14.07 77.81 25.39
  C 78.03 25.91 77.86 26.14 77.29 26.07
  C 75.69 25.87 74.06 25.94 72.41 26.29
  C 64.71 27.93 65.73 35.89 68.04 41.36
  C 70.70 47.67 73.71 53.39 77.07 58.53
  C 77.28 58.84 77.20 59.07 76.85 59.21
  C 74.86 59.98 73.78 61.40 73.59 63.48
  C 72.90 71.09 71.99 78.48 70.87 85.65
  C 70.41 88.54 69.16 91.36 66.46 92.76
  C 59.90 96.15 52.67 95.15 51.83 86.46
  C 51.20 79.89 51.02 73.54 51.29 67.39
  C 51.47 63.13 50.45 59.00 45.54 58.97
  C 45.35 58.97 45.29 58.88 45.34 58.70
  Z"
/>
<path fill="#32648d" d="
  M 37.27 9.67
  C 30.71 16.84 29.50 27.22 30.00 36.46
  C 30.42 44.32 27.26 51.23 33.98 57.65
  C 34.27 57.93 34.29 58.22 34.02 58.52
  C 30.99 62.00 28.39 64.96 26.22 67.41
  C 21.99 72.17 17.58 63.03 16.32 60.14
  C 12.34 51.08 9.49 40.61 7.78 28.74
  C 6.88 22.48 8.01 13.78 13.61 9.76
  C 20.01 5.18 29.72 6.56 37.09 8.97
  C 37.52 9.11 37.58 9.34 37.27 9.67
  Z"
/>
<path fill="#32648d" d="
  M 76.87 52.94
  C 73.66 47.17 69.29 39.90 69.25 33.30
  C 69.24 30.96 70.38 29.59 72.69 29.19
  C 73.65 29.03 74.61 28.87 75.56 28.70
  C 77.79 28.31 78.67 29.23 78.21 31.44
  C 77.36 35.51 77.31 39.94 78.06 44.73
  C 78.49 47.48 78.25 50.28 77.30 52.91
  C 77.18 53.23 77.04 53.24 76.87 52.94
  Z
  M 71.55 30.84
  C 71.26 31.02 71.15 31.39 71.30 31.70
  C 72.27 33.77 74.98 33.13 75.75 31.22
  C 75.92 30.79 75.79 30.48 75.35 30.31
  C 74.13 29.84 72.86 30.01 71.55 30.84
  Z"
/>
<path fill="#32648d" d="
  M 45.44 50.52
  C 44.33 52.97 43.40 55.38 42.66 57.76
  C 42.54 58.15 42.27 58.34 41.86 58.32
  C 37.94 58.16 34.54 55.09 33.17 51.62
  C 32.36 49.57 32.12 47.16 32.44 44.40
  C 32.89 40.45 32.97 36.66 32.66 33.04
  C 32.62 32.66 32.81 32.29 33.13 32.09
  C 36.05 30.23 43.02 27.37 45.21 30.90
  C 45.84 31.92 46.29 33.20 46.56 34.73
  C 47.68 41.15 47.31 46.41 45.44 50.52
  Z
  M 44.8062 32.7816
  C 44.95 31.88 43.96 30.97 42.5895 30.7422
  C 41.22 30.51 39.98 31.06 39.8338 31.9584
  C 39.69 32.86 40.68 33.77 42.0505 33.9978
  C 43.42 34.23 44.66 33.68 44.8062 32.7816
  Z"
/>
<path fill="#32648d" d="
  M 79.71 61.73
  C 81.97 63.41 86.92 63.04 89.61 62.46
  C 91.28 62.11 91.39 62.39 89.96 63.32
  C 86.13 65.79 81.76 66.63 76.86 65.85
  C 76.49 65.79 76.28 65.57 76.24 65.19
  C 76.05 63.12 76.88 61.90 78.73 61.51
  C 79.09 61.44 79.42 61.51 79.71 61.73
  Z"
/>
<path fill="#32648d" d="
  M 41.39 66.34
  C 42.66 65.37 43.80 64.11 44.79 62.57
  C 45.30 61.77 46.41 61.61 47.13 62.23
  C 48.79 63.64 48.84 65.16 47.27 66.77
  C 44.02 70.13 39.92 70.97 34.96 69.30
  C 34.13 69.03 34.14 68.76 34.97 68.51
  C 37.07 67.88 39.64 67.66 41.39 66.34
  Z"
/>
</g>
</svg>
