<?xml version="1.0" encoding="UTF-8" standalone="no"?>
<svg xmlns="http://www.w3.org/2000/svg" version="1.2" baseProfile="tiny" viewBox="0.00 0.00 100.00 100.00" width="100.00" height="100.00">
<path fill="#ff3d00" d="
  M 83.35 54.05
  C 75.61 70.96 63.56 85.86 50.32 99.65
  C 50.12 99.86 49.92 99.86 49.71 99.65
  C 36.71 86.25 23.50 69.87 16.11 52.80
  C 10.36 39.52 11.59 27.55 19.82 16.89
  C 35.52 -3.43 67.27 -2.44 81.65 18.89
  C 88.72 29.38 89.28 41.10 83.35 54.05
  Z
  M 66.68 37.50
  C 66.68 28.29 59.21 20.82 50.00 20.82
  C 40.79 20.82 33.32 28.29 33.32 37.50
  C 33.32 46.71 40.79 54.18 50.00 54.18
  C 59.21 54.18 66.68 46.71 66.68 37.50
  Z"
/>
</svg>
